<svg width="276" height="260" viewBox="0 0 276 260" fill="none" xmlns="http://www.w3.org/2000/svg">
<path d="M270.465 0.222717C265.524 0.757263 260.604 2.38315 254.8 5.36766C251.261 7.17174 248.305 8.99808 240.386 14.2544C237.128 16.4148 232.165 19.5998 229.382 21.3147C210.912 32.6514 206.769 35.2573 203.036 37.8186C200.727 39.4223 197.555 41.8054 195.959 43.1195C194.383 44.4558 191.902 46.5272 190.456 47.7299C187.587 50.1353 183.401 53.053 176.043 57.7525C168.491 62.5634 167.541 63.3874 158.177 72.9423C153.602 77.5973 149.006 82.1186 147.927 83.0095C143.634 86.5063 140.224 88.3772 136.966 89.0453C135.305 89.3794 135.175 89.3794 131.615 88.7558C128.119 88.1767 125.746 88.0876 124.732 88.5108C124.516 88.5999 124.279 88.444 124.041 88.0431C123.07 86.3504 118.841 80.2254 117.072 77.9314C111.181 70.4033 105.118 66.4165 97.5874 65.1247C95.0413 64.6792 88.8702 64.6124 85.8925 65.0133C83.0011 65.392 78.9877 66.216 75.2117 67.2406C64.4014 70.136 60.7333 71.0492 58.705 71.4055L56.4394 71.7842L50.8293 70.6483C33.2005 67.0624 25.9721 65.9265 17.3843 65.5033C12.6157 65.2583 6.78984 65.4588 2.94907 66.0379C1.65443 66.216 0.489252 66.3719 0.381365 66.3719C0.251901 66.3719 0.208746 66.4165 0.251901 66.461C0.295056 66.5279 1.22288 66.6838 2.28017 66.8174C20.3836 69.156 32.3806 71.7842 47.1611 76.6396C57.734 80.1141 60.4959 81.25 63.1284 83.1654C67.0554 86.0831 70.5941 91.718 73.7876 100.115C74.5212 102.075 75.5353 104.725 76.01 106.017C78.5346 112.654 82.6127 119.67 88.0718 126.73C92.3657 132.276 93.4014 133.991 97.3932 142.21C101.773 151.163 102.572 152.477 108.57 160.518C110.469 163.057 112.692 166.175 113.512 167.444C115.065 169.85 117.18 173.903 117.18 174.46C117.18 174.638 116.23 175.373 115.087 176.086C112.044 177.935 107.34 181.231 104.686 183.369C102.054 185.463 96.0338 191.565 94.2213 193.926C89.9274 199.584 86.9929 205.708 85.051 213.125L84.6194 214.773L85.763 214.64C86.3888 214.573 87.8129 214.127 88.9349 213.637C91.1142 212.68 92.2362 212.368 92.5815 212.591C92.7109 212.658 92.3657 213.393 91.7399 214.328C90.0353 216.956 87.8776 221.01 86.0004 225.175C83.9937 229.651 83.6484 230.498 83.7779 230.631C83.8211 230.698 84.5115 230.832 85.2883 230.943C86.7987 231.166 88.9996 231.01 93.2072 230.431C94.5666 230.23 95.9475 230.075 96.2712 230.075C96.8538 230.075 96.8754 230.097 96.638 230.765C96.5085 231.144 95.4513 233.46 94.2861 235.888C92.0636 240.543 91.0926 243.082 90.6611 245.331C90.51 246.066 90.3374 246.846 90.2943 247.046C90.1864 247.403 90.359 247.447 91.6752 247.447C94.6529 247.447 97.6737 246.044 102.831 242.324C105.981 240.053 108.355 238.494 108.484 238.605C108.506 238.649 108.247 239.518 107.88 240.565C105.657 246.801 104.967 250.632 105.161 255.443C105.312 259.162 105.398 259.474 106.175 259.474C107.017 259.474 109.347 258.65 110.685 257.871C112.411 256.846 114.741 254.842 116.317 252.993C118.776 250.12 121.581 247.202 122.531 246.512L123.437 245.866V250.632C123.437 255.265 123.761 258.65 124.3 259.697C124.667 260.41 125.401 259.942 127.774 257.47C130.881 254.262 131.399 254.151 131.119 256.802C130.946 258.272 131.205 259.029 131.831 259.029C132.111 259.029 132.392 258.583 132.823 257.403C135.499 250.298 139.728 243.104 148.683 230.409C151.121 226.979 154.206 222.457 155.566 220.386C156.925 218.292 158.069 216.555 158.112 216.511C158.134 216.466 158.371 216.6 158.608 216.822C158.997 217.179 159.061 217.179 159.558 216.867C160.615 216.154 162.298 213.37 165.837 206.555C167.11 204.127 168.232 202.011 168.361 201.9C168.491 201.766 168.512 202.1 168.404 202.813C168.318 203.593 168.34 204.016 168.534 204.127C168.879 204.35 168.901 204.305 169.742 201.878C174.252 188.848 175.568 172.077 173.173 157.8C172.741 155.261 171.706 150.762 170.994 148.468L170.454 146.709L171.166 145.461C172.245 143.591 175.223 140.606 177.704 138.936C180.164 137.265 182.171 136.218 188.148 133.39C193.067 131.051 195.419 129.782 197.663 128.223C199.605 126.886 202.324 124.214 203.403 122.588C204.05 121.608 204.697 121.095 207.028 119.581C212.875 115.817 217.299 112.253 221.355 108.044C223.383 105.928 223.772 105.616 224.527 105.505C225.843 105.349 227.807 104.391 228.778 103.433C229.253 102.943 231.604 100.248 234.021 97.442C239.351 91.1835 242.005 88.5108 245.846 85.5708C247.464 84.3236 250.096 82.319 251.671 81.0941C256.764 77.1741 259.353 74.5237 261.662 70.8933C263.021 68.7997 263.992 66.7283 263.69 66.6392C262.978 66.3719 238.25 70.4255 235.769 71.2051C235.445 71.2942 235.532 71.0714 236.179 70.136C240.343 64.2338 241.767 61.2047 243.407 54.7234C243.99 52.4294 244.098 52.2512 244.961 51.4939C248.111 48.799 249.622 46.104 249.665 43.0972C249.686 42.2731 249.794 42.1172 251.391 40.7141C252.319 39.89 254.11 38.0414 255.361 36.6159C257.972 33.676 266.948 22.4284 267.596 21.2702C267.833 20.847 268.178 19.5775 268.351 18.4416C268.761 15.7689 269.43 14.3435 271.868 10.9135C275.45 5.87993 276.399 3.49677 275.86 0.69046L275.73 0L273.853 0.0222778C272.839 0.0445557 271.307 0.133636 270.465 0.222717Z" fill="#E8CFBB"/>
</svg>
