<svg width="120" height="120" viewBox="0 0 120 120" fill="none" xmlns="http://www.w3.org/2000/svg">
<circle cx="60" cy="60" r="60" fill="#E8CFBB"/>
<path d="M99.8259 50.085L62.4413 25.729C60.7083 24.6 58.092 24.5989 56.3579 25.729L18.9754 50.085C17.9492 50.7537 17.3604 51.753 17.3604 52.8266C17.3604 53.9002 17.9492 54.8995 18.9754 55.5682L34.3441 65.5812V77.9402C34.3441 84.1223 46.9494 87.3578 59.4001 87.3578C71.8519 87.3578 84.4561 84.1223 84.4561 77.9402V65.5812L91.7641 60.819V80.9277C91.3716 81.2364 91.0281 81.6591 90.7619 82.1938L87.8763 87.9773C87.323 89.0886 87.3261 90.248 87.8878 91.1573C88.4484 92.0666 89.4809 92.5888 90.7201 92.5888H95.9401C97.1794 92.5888 98.2119 92.0666 98.7725 91.1573C99.3342 90.248 99.3373 89.0875 98.784 87.9773L95.8984 82.1938C95.6322 81.6591 95.2887 81.2364 94.8961 80.9277V58.7796L99.8259 55.5682C100.852 54.8995 101.441 53.9002 101.441 52.8266C101.441 51.753 100.852 50.7537 99.8259 50.085ZM95.9819 89.3826C95.9944 89.4056 96.0038 89.4286 96.0122 89.4485C95.9913 89.4496 95.9662 89.4506 95.9401 89.4506H90.7201C90.694 89.4506 90.669 89.4496 90.6481 89.4485C90.6564 89.4276 90.6669 89.4056 90.6784 89.3826L93.3301 84.0669L95.9819 89.3826ZM81.3241 77.9402C81.3241 80.4997 72.7832 84.2186 59.4001 84.2186C46.0171 84.2186 37.4761 80.4997 37.4761 77.9402V57.0122C37.4761 54.4527 46.0171 50.7338 59.4001 50.7338C72.7832 50.7338 81.3241 54.4527 81.3241 57.0122V77.9402ZM98.119 52.9354L91.8623 57.0122H91.7641V57.076L84.4561 61.8372V57.0122C84.4561 50.829 71.8519 47.5946 59.4001 47.5946C46.9494 47.5946 34.3441 50.829 34.3441 57.0122V61.8372L20.6824 52.9354C20.6197 52.8946 20.5738 52.857 20.5414 52.8266C20.5738 52.7963 20.6197 52.7586 20.6824 52.7178L58.0649 28.3618C58.7518 27.916 60.0485 27.9139 60.7344 28.3618L98.119 52.7167C98.1826 52.7575 98.2275 52.7952 98.2599 52.8256C98.2275 52.857 98.1816 52.8946 98.119 52.9354Z" fill="#685044"/>
<path d="M78.068 72.0384C73.4619 70.137 66.6571 69.0457 59.4002 69.0457C52.1455 69.0457 45.3417 70.137 40.7324 72.0394C40.199 72.2602 39.9453 72.8713 40.1645 73.406C40.3305 73.8099 40.7199 74.0537 41.1302 74.0537C41.2628 74.0537 41.3975 74.0286 41.5269 73.9752C45.894 72.1723 52.4085 71.1385 59.4002 71.1385C66.395 71.1385 72.9085 72.1712 77.2725 73.9742C77.808 74.1918 78.4156 73.9397 78.6359 73.405C78.8552 72.8702 78.6015 72.2591 78.068 72.0384Z" fill="#3A405A"/>
</svg>
