<svg width="120" height="120" viewBox="0 0 120 120" fill="none" xmlns="http://www.w3.org/2000/svg">
<circle cx="60" cy="60" r="60" fill="#E8CFBB"/>
<g clip-path="url(#clip0)">
<path d="M85.201 60.0002H80.401V30.0002C80.401 26.6918 77.7094 24.0002 74.401 24.0002H36.001C32.6926 24.0002 30.001 26.6918 30.001 30.0002V60.0002H25.201C24.5386 60.0002 24.001 60.5366 24.001 61.2002C24.001 64.5086 26.6926 67.2002 30.001 67.2002H55.201V94.8002C55.201 95.4638 55.7386 96.0002 56.401 96.0002H61.201H85.201C85.8634 96.0002 86.401 95.4638 86.401 94.8002V61.2002C86.401 60.5366 85.8634 60.0002 85.201 60.0002ZM32.401 30.0002C32.401 28.0154 34.0162 26.4002 36.001 26.4002H74.401C76.3858 26.4002 78.001 28.0154 78.001 30.0002V60.0002H61.201H56.401H32.401V30.0002ZM30.001 64.8002C28.4362 64.8002 27.1018 63.797 26.6062 62.4002H31.201H55.201V64.8002H30.001ZM57.601 66.0002V62.4002H60.001V93.6002H57.601V66.0002ZM84.001 93.6002H62.401V62.4002H79.201H84.001V93.6002Z" fill="#685044"/>
<path d="M89.8557 64.655C89.1753 65.3342 88.8009 66.239 88.8009 67.2002V70.8002V90.2065C88.8009 90.3925 88.8441 90.5773 88.9269 90.7429L91.3269 95.5429C91.5297 95.9497 91.9461 96.2065 92.4009 96.2065C92.8557 96.2065 93.2709 95.9497 93.4749 95.5429L95.8749 90.7429C95.9577 90.5761 96.0009 90.3925 96.0009 90.2065V70.8002V67.2002C96.0009 66.239 95.6265 65.3342 94.9473 64.655C93.5865 63.2954 91.2153 63.2954 89.8557 64.655ZM91.2009 67.2002C91.2009 66.8846 91.3293 66.575 91.5525 66.3518C92.0049 65.897 92.7957 65.897 93.2493 66.3518C93.4725 66.575 93.6009 66.8846 93.6009 67.2002V69.6002H91.2009V67.2002ZM93.6009 85.4065H91.2009V72.0001H93.6009V85.4065ZM92.4009 92.3233L91.2009 89.9233V87.8065H93.6009V89.9233L92.4009 92.3233Z" fill="#685044"/>
<path d="M64.801 72.0003V79.2003C64.801 79.8639 65.3386 80.4003 66.001 80.4003H80.401C81.0634 80.4003 81.601 79.8639 81.601 79.2003V72.0003C81.601 71.3367 81.0634 70.8003 80.401 70.8003H66.001C65.3386 70.8003 64.801 71.3367 64.801 72.0003ZM67.201 73.2003H79.201V78.0003H67.201V73.2003Z" fill="#685044"/>
<path d="M39.6008 37.2002C39.6008 37.6394 39.8408 38.0438 40.226 38.2538L45.6008 41.1854V48.0002C45.6008 48.509 45.9224 48.9626 46.4012 49.1318C48.446 49.853 50.576 50.2778 52.7336 50.3978C53.1572 50.4218 53.5796 50.4326 54.0008 50.4326C56.5784 50.4326 59.1272 49.997 61.5968 49.1318C62.078 48.965 62.4008 48.5102 62.4008 48.0002V41.1854L66.0008 39.2222V44.6222C64.6076 45.119 63.6008 46.439 63.6008 48.0014V51.6014C63.6008 52.265 64.1384 52.8014 64.8008 52.8014H69.6008C70.2632 52.8014 70.8008 52.265 70.8008 51.6014V48.0014C70.8008 46.439 69.794 45.119 68.4008 44.6222V37.2002C68.4008 36.761 68.1608 36.3566 67.7756 36.1466L54.5756 28.9466C54.2168 28.7522 53.7848 28.7522 53.426 28.9466L40.226 36.1466C39.8408 36.3566 39.6008 36.761 39.6008 37.2002ZM60.0008 42.4946V47.1302C57.6764 47.8418 55.2764 48.1286 52.868 48.0026C51.218 47.9102 49.5848 47.6186 48.0008 47.1314V42.4946L53.426 45.4538C53.6048 45.551 53.8028 45.6002 54.0008 45.6002C54.1988 45.6002 54.3968 45.551 54.5756 45.4538L60.0008 42.4946ZM68.4008 50.4002H66.0008V48.0002C66.0008 47.3378 66.5396 46.8002 67.2008 46.8002C67.862 46.8002 68.4008 47.3378 68.4008 48.0002V50.4002ZM54.0008 31.367L64.6952 37.2002L54.0008 43.0334L43.3064 37.2002L54.0008 31.367Z" fill="#685044"/>
<path d="M75.6009 56.4003V30.0003C75.6009 29.3367 75.0633 28.8003 74.4009 28.8003H62.4009V31.2003H73.2009V55.2003H37.2009V31.2003H45.6009V28.8003H36.0009C35.3385 28.8003 34.8009 29.3367 34.8009 30.0003V56.4003C34.8009 57.0639 35.3385 57.6003 36.0009 57.6003H74.4009C75.0633 57.6003 75.6009 57.0639 75.6009 56.4003Z" fill="#685044"/>
<path d="M93.6009 58.8003H91.2009V61.2003H93.6009V58.8003Z" fill="#685044"/>
<path d="M93.6009 54.0002H91.2009V56.4002H93.6009V54.0002Z" fill="#685044"/>
<path d="M93.6009 49.2002H91.2009V51.6002H93.6009V49.2002Z" fill="#685044"/>
<path d="M93.6009 44.4001H91.2009V46.8001H93.6009V44.4001Z" fill="#685044"/>
<path d="M93.6009 39.6001H91.2009V42.0001H93.6009V39.6001Z" fill="#685044"/>
<path d="M88.801 39.6001H86.401V42.0001H88.801V39.6001Z" fill="#685044"/>
<path d="M50.4009 81.6001H48.0009V84.0001H50.4009V81.6001Z" fill="#685044"/>
<path d="M45.6008 81.6001H43.2008V84.0001H45.6008V81.6001Z" fill="#685044"/>
<path d="M40.8009 81.6001H38.4009V84.0001H40.8009V81.6001Z" fill="#685044"/>
<path d="M36.001 81.6001H33.601V84.0001H36.001V81.6001Z" fill="#685044"/>
<path d="M36.001 76.8003H33.601V79.2003H36.001V76.8003Z" fill="#685044"/>
<path d="M36.001 72.0002H33.601V74.4002H36.001V72.0002Z" fill="#685044"/>
</g>
<defs>
<clipPath id="clip0">
<rect width="76.8" height="93.258" fill="white" transform="translate(21.601 21.6001)"/>
</clipPath>
</defs>
</svg>
