<svg width="100" height="100" viewBox="0 0 100 100" fill="none" xmlns="http://www.w3.org/2000/svg">
<circle cx="50" cy="50" r="50" fill="#685044"/>
<path d="M82 39.2625C82 37.2483 81.2007 35.3166 79.778 33.8923C78.3553 32.4681 76.4257 31.6679 74.4136 31.6679H65.2038L64.2251 27.7491C63.8142 26.1068 62.8668 24.6491 61.5336 23.6074C60.2003 22.5658 58.5576 22 56.8664 22H42.1336C40.4424 22 38.7997 22.5658 37.4664 23.6074C36.1332 24.6491 35.1858 26.1068 34.7749 27.7491L33.7962 31.6679H24.5864C22.5743 31.6679 20.6447 32.4681 19.222 33.8923C17.7993 35.3166 17 37.2483 17 39.2625V69.4054C17 70.4027 17.1962 71.3903 17.5775 72.3117C17.9587 73.2332 18.5175 74.0704 19.222 74.7756C19.9265 75.4808 20.7628 76.0402 21.6832 76.4219C22.6036 76.8036 23.5901 77 24.5864 77H74.4136C75.4099 77 76.3964 76.8036 77.3168 76.4219C78.2372 76.0402 79.0735 75.4808 79.778 74.7756C80.4825 74.0704 81.0413 73.2332 81.4225 72.3117C81.8038 71.3903 82 70.4027 82 69.4054V39.2625ZM78.9655 69.4054C78.9655 70.6139 78.4859 71.773 77.6323 72.6275C76.7786 73.4821 75.6208 73.9622 74.4136 73.9622H24.5864C23.3792 73.9622 22.2214 73.4821 21.3677 72.6275C20.5141 71.773 20.0345 70.6139 20.0345 69.4054V39.2625C20.0345 38.054 20.5141 36.8949 21.3677 36.0404C22.2214 35.1858 23.3792 34.7057 24.5864 34.7057H34.9797C35.3185 34.7055 35.6476 34.5917 35.9143 34.3825C36.181 34.1732 36.3701 33.8807 36.4514 33.5514L37.7184 28.4858C37.9652 27.5007 38.5338 26.6264 39.3337 26.0017C40.1336 25.377 41.1191 25.0378 42.1336 25.0378H56.8664C57.8809 25.0378 58.8664 25.377 59.6663 26.0017C60.4662 26.6264 61.0348 27.5007 61.2816 28.4858L62.5486 33.5514C62.6313 33.8793 62.821 34.1701 63.0876 34.3779C63.3542 34.5856 63.6825 34.6983 64.0203 34.6982H74.4136C75.6208 34.6982 76.7786 35.1782 77.6323 36.0328C78.4859 36.8873 78.9655 38.0464 78.9655 39.2549V69.4054Z" fill="#E8CFBB"/>
<path d="M49.5 37C46.2366 37 43.0465 37.9091 40.3331 39.6122C37.6197 41.3154 35.5048 43.7362 34.256 46.5684C33.0071 49.4007 32.6804 52.5172 33.3171 55.5239C33.9537 58.5306 35.5252 61.2924 37.8327 63.4602C40.1403 65.6279 43.0803 67.1041 46.281 67.7022C49.4817 68.3002 52.7993 67.9933 55.8143 66.8201C58.8293 65.647 61.4062 63.6603 63.2192 61.1113C65.0323 58.5624 66 55.5656 66 52.5C65.9855 48.3933 64.2425 44.4588 61.1512 41.5549C58.06 38.651 53.8716 37.0136 49.5 37ZM49.5 65.114C46.8582 65.114 44.2757 64.3781 42.0792 62.9994C39.8826 61.6206 38.1706 59.661 37.1596 57.3682C36.1486 55.0754 35.8841 52.5525 36.3995 50.1185C36.9149 47.6845 38.187 45.4487 40.0551 43.6939C41.9231 41.9391 44.3031 40.7441 46.8942 40.2599C49.4852 39.7758 52.1709 40.0242 54.6116 40.9739C57.0523 41.9236 59.1384 43.5319 60.6061 45.5953C62.0738 47.6588 62.8571 50.0847 62.8571 52.5664C62.8447 55.8907 61.4335 59.0754 58.9312 61.426C56.4289 63.7766 53.0387 65.1024 49.5 65.114Z" fill="#E8CFBB"/>
</svg>
