<svg width="100" height="100" viewBox="0 0 100 100" fill="none" xmlns="http://www.w3.org/2000/svg">
<circle cx="50" cy="50" r="50" fill="#685044"/>
<path d="M74.29 17H25.71C23.4008 17.0026 21.1869 17.9212 19.554 19.554C17.9212 21.1869 17.0026 23.4008 17 25.71V74.29C17.0026 76.5992 17.9212 78.8131 19.554 80.446C21.1869 82.0788 23.4008 82.9974 25.71 83H74.29C76.5992 82.9974 78.8131 82.0788 80.446 80.446C82.0788 78.8131 82.9974 76.5992 83 74.29V25.71C82.9974 23.4008 82.0788 21.1869 80.446 19.554C78.8131 17.9212 76.5992 17.0026 74.29 17V17ZM75 19L60.83 33.17C60.7871 33.2091 60.7533 33.2571 60.7309 33.3107C60.7084 33.3642 60.6979 33.422 60.7 33.48V39.25C66.8 33.1433 72.9 27.04 79 20.94C79.6328 21.5629 80.1355 22.3053 80.4789 23.1242C80.8222 23.9431 80.9993 24.8221 81 25.71V28.15L69.84 39.31H81V43.61H56.43V19H60.71V30.16L71.87 19H74.29C74.52 19 74.74 19 75 19ZM28.12 19L39.34 30.22V19H43.64V43.6H19V39.33H30.29L30.14 39.17L23.23 32.26L19 28V25.71C19 25.48 19 25.25 19 25C23.7333 29.72 28.4533 34.44 33.16 39.16C33.1997 39.2055 33.249 39.2416 33.3043 39.2658C33.3597 39.29 33.4196 39.3017 33.48 39.3H39.3L39.16 39.15L21 21C21.6148 20.373 22.3473 19.8736 23.1556 19.5304C23.9638 19.1872 24.8319 19.0069 25.71 19H28.12ZM25.12 81L39.22 66.83C39.2649 66.7898 39.3007 66.7405 39.3248 66.6852C39.349 66.63 39.361 66.5703 39.36 66.51C39.36 64.63 39.36 62.76 39.36 60.88C39.36 60.83 39.36 60.78 39.36 60.7C39.36 60.62 39.25 60.79 39.21 60.84L21 79.05C20.3675 78.429 19.8649 77.6883 19.5215 76.871C19.1782 76.0538 19.0009 75.1764 19 74.29V72L30.17 60.79L30.28 60.67H19V56.39H43.63V81H39.36V69.73L39.2 69.89L32.79 76.3L28.08 81H25.71C25.5033 81 25.2933 81 25.08 81H25.12ZM74.33 81H72L60.86 69.89L60.7 69.74V81H56.42V56.4H81V60.68H69.84L81 71.84V74.29C81 74.5033 81 74.7133 81 74.92L66.84 60.79C66.8043 60.7488 66.7596 60.7165 66.7092 60.6957C66.6589 60.6748 66.6043 60.666 66.55 60.67H60.78L79.09 79C78.4639 79.6369 77.7167 80.142 76.8923 80.4854C76.0679 80.8289 75.1831 81.0039 74.29 81H74.33Z" fill="#E8CFBB"/>
</svg>
