<svg width="100" height="100" viewBox="0 0 100 100" fill="none" xmlns="http://www.w3.org/2000/svg">
<circle cx="50" cy="50" r="50" fill="#685044"/>
<path d="M67.8984 21H49.5H40.759H31.1016C29.3912 21 28 22.4312 28 24.1908V74.8092C28 76.5688 29.3912 78 31.1016 78H67.8984C69.6088 78 71 76.5688 71 74.8092V24.1908C71 22.4312 69.6088 21 67.8984 21ZM48.3721 23.3206V40.4618L45.9269 37.9468C45.707 37.72 45.4182 37.6069 45.1295 37.6069C44.8408 37.6069 44.552 37.72 44.3321 37.9468L41.8869 40.4618V23.3206H48.3721ZM30.2557 74.8092V24.1908C30.2557 23.7111 30.6353 23.3206 31.1016 23.3206H34.8377V75.6794H31.1016C30.6353 75.6794 30.2557 75.2889 30.2557 74.8092ZM68.7443 74.8092C68.7443 75.2889 68.3647 75.6794 67.8984 75.6794H37.0934V23.3206H39.6311V43.2634C39.6311 43.7327 39.9058 44.1556 40.3276 44.3355C40.7483 44.5153 41.2339 44.4161 41.5564 44.0837L45.1295 40.4084L48.7026 44.0837C48.918 44.3059 49.2068 44.4237 49.5 44.4237C49.6449 44.4237 49.7921 44.3947 49.9314 44.3355C50.3532 44.1556 50.6279 43.7327 50.6279 43.2634V23.3206H67.8984C68.3647 23.3206 68.7443 23.7111 68.7443 24.1908V74.8092Z" fill="#E8CFBB"/>
</svg>
