<svg width="100" height="100" viewBox="0 0 100 100" fill="none" xmlns="http://www.w3.org/2000/svg">
<circle cx="50" cy="50" r="50" fill="#685044"/>
<path d="M50.0617 58.6859C54.5388 58.6859 58.17 55.0547 58.17 50.5776V35.1083C58.17 30.6312 54.5388 27 50.0617 27C45.5845 27 41.9534 30.6312 41.9534 35.1083V50.5715C41.9534 55.0547 45.5845 58.6798 50.0617 58.6859ZM44.4235 35.1083C44.4235 33.5459 45.0534 32.1441 46.0723 31.1252C47.0972 30.1002 48.4992 29.4764 50.0614 29.4764C51.6236 29.4764 53.0256 30.1063 54.0506 31.1252C55.0758 32.1502 55.6993 33.5522 55.6993 35.1083V50.5715C55.6993 52.1339 55.0695 53.5357 54.0506 54.5607C53.0254 55.5859 51.6236 56.2094 50.0614 56.2094C48.4992 56.2094 47.0972 55.5796 46.0723 54.5607C45.0473 53.5355 44.4235 52.1337 44.4235 50.5715V35.1083Z" fill="#E8CFBB"/>
<path d="M37.1428 54.1779C37.2231 55.2091 37.5502 56.3084 38.1246 57.4014C38.9829 59.0379 40.3972 60.6558 42.4102 61.8725C44.127 62.91 46.2698 63.6325 48.8326 63.8238V69.5299H37.6552V72.0001H62.4615V69.5299H51.2964V63.8486C53.0318 63.7683 55.329 63.4781 57.4966 62.4097C58.8306 61.749 60.1089 60.7795 61.0906 59.3901C62.0724 58.0006 62.7394 56.2097 62.9247 53.9989C63.011 52.9923 63.0542 51.5411 63.0853 49.948C63.1162 48.361 63.1225 46.6442 63.1225 45.1561C63.1225 42.9576 63.1039 41.2656 63.1039 41.2656L60.6338 41.2905C60.6338 41.2905 60.6398 41.7104 60.6398 42.402C60.6458 43.0936 60.6521 44.0631 60.6521 45.1563C60.6521 46.6322 60.6461 48.3367 60.615 49.9051C60.5841 51.4675 60.5346 52.9001 60.4606 53.7895C60.3062 55.6298 59.7813 56.9513 59.0711 57.9579C58.5339 58.7175 57.8855 59.2979 57.1505 59.7673C56.0512 60.4652 54.7669 60.8849 53.5256 61.1199C52.2782 61.3546 51.0863 61.404 50.1846 61.404C46.5043 61.398 43.9412 60.2061 42.2307 58.6869C41.3785 57.9273 40.7363 57.0753 40.3041 56.2476C39.8718 55.42 39.6433 54.6174 39.6002 53.9813C39.5444 53.2897 39.5075 52.0423 39.489 50.6157C39.4704 49.1891 39.4641 47.5775 39.4641 46.0954C39.4641 44.7986 39.4701 43.6004 39.4764 42.7299C39.4827 41.8593 39.4887 41.3218 39.4887 41.3218L37.0186 41.297C37.0186 41.297 37 43.4832 37 46.0952C37 47.5773 37.006 49.2014 37.0309 50.6464C37.0432 52.1099 37.0803 53.3696 37.1421 54.1786L37.1428 54.1779Z" fill="#E8CFBB"/>
</svg>
