<svg width="110" height="110" viewBox="0 0 110 110" fill="none" xmlns="http://www.w3.org/2000/svg">
<path d="M16.5 86.1665C16.0138 86.1665 15.5475 86.3597 15.2037 86.7035C14.8598 87.0473 14.6667 87.5136 14.6667 87.9998V108.167C14.6667 108.653 14.8598 109.119 15.2037 109.463C15.5475 109.807 16.0138 110 16.5 110C16.9863 110 17.4526 109.807 17.7964 109.463C18.1402 109.119 18.3334 108.653 18.3334 108.167V87.9998C18.3334 87.5136 18.1402 87.0473 17.7964 86.7035C17.4526 86.3597 16.9863 86.1665 16.5 86.1665Z" fill="#685044"/>
<path d="M108.167 106.333H42.1667V94.7945L42.7442 95.9513C43.3359 97.1358 44.3342 98.0677 45.5565 98.5766C46.7788 99.0856 48.1435 99.1377 49.401 98.7233L60.203 95.119C61.5265 94.6955 62.6482 93.8002 63.3547 92.6036C64.0611 91.407 64.3032 89.9924 64.0347 88.629C63.8663 87.8784 63.5423 87.1715 63.0837 86.5539C62.6251 85.9363 62.042 85.4218 61.3722 85.0436C60.7023 84.6654 59.9606 84.4319 59.1949 84.3582C58.4292 84.2845 57.6565 84.3723 56.9268 84.6158L50.5798 86.7168L47.5402 79.1067C46.8701 77.3982 45.6988 75.9324 44.1802 74.902C42.6616 73.8716 40.8668 73.3248 39.0317 73.3335H34.8333V70.4845C36.5072 68.9505 37.6646 66.9356 38.1462 64.7168C39.9126 63.7818 41.3909 62.3832 42.4222 60.6713C43.4536 58.9593 43.999 56.9988 44 55.0002V53.1668C44 52.6806 43.8068 52.2143 43.463 51.8705C43.1192 51.5266 42.6529 51.3335 42.1667 51.3335C41.6804 51.3335 41.2141 51.5266 40.8703 51.8705C40.5265 52.2143 40.3333 52.6806 40.3333 53.1668V55.0002C40.3333 56.9451 39.5607 58.8103 38.1854 60.1856C36.8102 61.5609 34.9449 62.3335 33 62.3335H22C20.0551 62.3335 18.1898 61.5609 16.8146 60.1856C15.4393 58.8103 14.6667 56.9451 14.6667 55.0002V51.3335C14.6667 49.3886 15.4393 47.5233 16.8146 46.148C18.1898 44.7728 20.0551 44.0002 22 44.0002H32.3895C32.8757 44.0002 33.342 43.807 33.6859 43.4632C34.0297 43.1194 34.2228 42.6531 34.2228 42.1668C34.2228 41.6806 34.0297 41.2143 33.6859 40.8705C33.342 40.5266 32.8757 40.3335 32.3895 40.3335H22C19.0835 40.3364 16.2873 41.4963 14.225 43.5585C12.1628 45.6208 11.0029 48.417 11 51.3335V55.0002C11.001 56.9988 11.5464 58.9593 12.5778 60.6713C13.6091 62.3832 15.0874 63.7818 16.8538 64.7168C17.3354 66.9356 18.4928 68.9505 20.1667 70.4845V73.3335H16.5C14.0697 73.3364 11.7399 74.3031 10.0214 76.0216C8.30295 77.74 7.33624 80.0699 7.33333 82.5002V99.0002H1.83333C1.3471 99.0002 0.880788 99.1933 0.536971 99.5371C0.193154 99.8809 0 100.347 0 100.833C0 101.32 0.193154 101.786 0.536971 102.13C0.880788 102.474 1.3471 102.667 1.83333 102.667H7.33333V106.333H1.83333C1.3471 106.333 0.880788 106.527 0.536971 106.87C0.193154 107.214 0 107.681 0 108.167C0 108.653 0.193154 109.119 0.536971 109.463C0.880788 109.807 1.3471 110 1.83333 110H9.16667C9.6529 110 10.1192 109.807 10.463 109.463C10.8068 109.119 11 108.653 11 108.167V82.5002C11 81.0415 11.5795 79.6425 12.6109 78.6111C13.6424 77.5796 15.0413 77.0002 16.5 77.0002H21.186C21.8214 78.114 22.7402 79.04 23.8491 79.6841C24.9581 80.3281 26.2176 80.6674 27.5 80.6674C28.7824 80.6674 30.0419 80.3281 31.1509 79.6841C32.2598 79.04 33.1786 78.114 33.814 77.0002H39.0317C40.1322 76.9955 41.2084 77.3242 42.1184 77.9431C43.0285 78.5619 43.7299 79.4418 44.1302 80.467L47.8152 89.6887C47.9886 90.1228 48.3213 90.4742 48.7452 90.6712C49.1691 90.8681 49.6522 90.8957 50.0958 90.7483L53.2253 89.7088L54.5087 93.1537L48.235 95.2437C47.8146 95.3691 47.3637 95.3448 46.9592 95.175C46.5546 95.0052 46.2215 94.7003 46.0167 94.3123L41.9833 86.2072C41.8017 85.8319 41.4975 85.5297 41.121 85.3506C40.7446 85.1714 40.3183 85.1259 39.9125 85.2216C39.5066 85.3173 39.1456 85.5484 38.8888 85.8769C38.632 86.2054 38.4949 86.6116 38.5 87.0285V108.167C38.5 108.653 38.6932 109.119 39.037 109.463C39.3808 109.807 39.8471 110 40.3333 110H108.167C108.653 110 109.119 109.807 109.463 109.463C109.807 109.119 110 108.653 110 108.167C110 107.681 109.807 107.214 109.463 106.87C109.119 106.527 108.653 106.333 108.167 106.333ZM22 66.0002H33C33.275 66.0002 33.55 65.9782 33.8158 65.958C33.1885 67.0823 32.2723 68.0188 31.162 68.6708C30.0517 69.3227 28.7875 69.6664 27.5 69.6664C26.2125 69.6664 24.9483 69.3227 23.838 68.6708C22.7277 68.0188 21.8115 67.0823 21.1842 65.958C21.45 65.9782 21.725 66.0002 22 66.0002ZM27.5 77.0002C26.5275 77.0002 25.5949 76.6139 24.9073 75.9262C24.2196 75.2386 23.8333 74.306 23.8333 73.3335V72.6753C26.199 73.5528 28.801 73.5528 31.1667 72.6753V73.3335C31.1667 74.306 30.7804 75.2386 30.0927 75.9262C29.4051 76.6139 28.4725 77.0002 27.5 77.0002ZM58.0855 88.0937C58.3295 88.0121 58.5879 87.9827 58.8439 88.0075C59.0999 88.0323 59.3479 88.1107 59.5717 88.2376C59.7954 88.3646 59.9899 88.5371 60.1426 88.7442C60.2953 88.9512 60.4027 89.1881 60.4578 89.4393C60.5254 89.9149 60.4195 90.3988 60.1597 90.8028C59.8998 91.2067 59.5033 91.5037 59.0425 91.6393L57.9993 91.9877L56.716 88.5538L58.0855 88.0937Z" fill="#685044"/>
<path d="M108.167 99.0002H78.8333V82.5002C78.8333 82.0139 78.6402 81.5476 78.2964 81.2038C77.9525 80.86 77.4862 80.6668 77 80.6668C76.5138 80.6668 76.0475 80.86 75.7036 81.2038C75.3598 81.5476 75.1667 82.0139 75.1667 82.5002V86.1668H71.5V82.5002C71.5029 80.0699 72.4696 77.74 74.1881 76.0216C75.9065 74.3031 78.2364 73.3364 80.6667 73.3335V75.0642C80.6672 75.5443 80.8561 76.0051 81.1928 76.3475L84.3333 79.5467V93.5002C84.3333 93.9864 84.5265 94.4527 84.8703 94.7965C85.2141 95.1403 85.6804 95.3335 86.1667 95.3335C86.6529 95.3335 87.1192 95.1403 87.463 94.7965C87.8068 94.4527 88 93.9864 88 93.5002V79.4385L91.1167 76.3732C91.2908 76.2025 91.4291 75.9988 91.5235 75.7741C91.618 75.5493 91.6666 75.308 91.6667 75.0642V73.3335C94.0969 73.3364 96.4268 74.3031 98.1453 76.0216C99.8637 77.74 100.83 80.0699 100.833 82.5002V86.1668H97.1667V82.5002C97.1667 82.0139 96.9735 81.5476 96.6297 81.2038C96.2859 80.86 95.8196 80.6668 95.3333 80.6668C94.8471 80.6668 94.3808 80.86 94.037 81.2038C93.6932 81.5476 93.5 82.0139 93.5 82.5002V93.5002C93.5 93.9864 93.6932 94.4527 94.037 94.7965C94.3808 95.1403 94.8471 95.3335 95.3333 95.3335C95.8196 95.3335 96.2859 95.1403 96.6297 94.7965C96.9735 94.4527 97.1667 93.9864 97.1667 93.5002V89.8335H100.833V93.5002C100.833 93.9864 101.026 94.4527 101.37 94.7965C101.714 95.1403 102.18 95.3335 102.667 95.3335C103.153 95.3335 103.619 95.1403 103.963 94.7965C104.307 94.4527 104.5 93.9864 104.5 93.5002V82.5002C104.499 80.7507 104.139 79.02 103.443 77.4151C102.746 75.8103 101.728 74.3656 100.45 73.1703C101.891 71.0565 102.663 68.5584 102.667 66.0002V62.3335C102.667 57.9574 100.928 53.7606 97.8339 50.6662C94.7396 47.5719 90.5427 45.8335 86.1667 45.8335C81.7906 45.8335 77.5938 47.5719 74.4994 50.6662C71.4051 53.7606 69.6667 57.9574 69.6667 62.3335V67.2578C69.6667 67.7441 69.8598 68.2104 70.2036 68.5542C70.5475 68.898 71.0138 69.0912 71.5 69.0912C71.9862 69.0912 72.4525 68.898 72.7964 68.5542C73.1402 68.2104 73.3333 67.7441 73.3333 67.2578V62.3335C73.3333 58.9299 74.6854 55.6657 77.0921 53.259C79.4988 50.8522 82.7631 49.5002 86.1667 49.5002C89.5703 49.5002 92.8345 50.8522 95.2412 53.259C97.6479 55.6657 99 58.9299 99 62.3335V66.0002C98.9935 67.8026 98.4518 69.5625 97.4435 71.0565C96.1373 70.3907 94.7255 69.9565 93.2708 69.7732C94.5305 68.169 95.2465 66.2053 95.315 64.1668C95.3288 63.7061 95.1686 63.257 94.8662 62.9091C94.5639 62.5612 94.1415 62.34 93.6833 62.2895C92.2376 62.1355 90.8887 61.4897 89.8621 60.4602C88.8356 59.4306 88.1938 58.0798 88.044 56.6337C87.9948 56.1847 87.7816 55.7698 87.4453 55.4683C87.109 55.1669 86.6733 55.0002 86.2217 55.0002H84.3333C82.3884 55.0002 80.5232 55.7728 79.1479 57.148C77.7726 58.5233 77 60.3886 77 62.3335V64.1668C77.0112 66.2093 77.7042 68.1896 78.969 69.7933C75.8891 70.2044 73.063 71.7188 71.0151 74.0557C68.9672 76.3925 67.8367 79.393 67.8333 82.5002V99.0002H56.8333C56.3471 99.0002 55.8808 99.1933 55.537 99.5371C55.1932 99.8809 55 100.347 55 100.833C55 101.32 55.1932 101.786 55.537 102.13C55.8808 102.474 56.3471 102.667 56.8333 102.667H108.167C108.653 102.667 109.119 102.474 109.463 102.13C109.807 101.786 110 101.32 110 100.833C110 100.347 109.807 99.8809 109.463 99.5371C109.119 99.1933 108.653 99.0002 108.167 99.0002ZM86.1263 76.1385L84.3333 74.3052V73.1318C84.9392 73.2606 85.5565 73.3281 86.1758 73.3335C86.4692 73.3335 86.7662 73.3188 87.0595 73.2895C87.3762 73.2464 87.6903 73.1852 88 73.1062V74.2997L86.1263 76.1385ZM80.6667 62.3335C80.6667 61.361 81.053 60.4284 81.7406 59.7408C82.4282 59.0531 83.3609 58.6668 84.3333 58.6668H84.7128C85.1594 60.2867 86.0082 61.7673 87.1804 62.9712C88.3525 64.1751 89.81 65.0632 91.4173 65.5528C91.1316 66.6275 90.5297 67.5917 89.6896 68.3203C88.8495 69.0489 87.81 69.5085 86.7057 69.6393C85.9412 69.7183 85.1686 69.6347 84.4387 69.3939C83.7088 69.1532 83.0381 68.7607 82.4707 68.2423C81.903 67.7259 81.4494 67.0966 81.1388 66.3949C80.8281 65.6931 80.6673 64.9343 80.6667 64.1668V62.3335ZM71.5 89.8335H75.1667V99.0002H71.5V89.8335Z" fill="#685044"/>
<path d="M108.167 21.9998C108.653 21.9998 109.119 21.8067 109.463 21.4629C109.807 21.119 110 20.6527 110 20.1665V14.6665C110 13.2078 109.421 11.8089 108.389 10.7774C107.358 9.74597 105.959 9.1665 104.5 9.1665H71.5C70.0413 9.1665 68.6424 9.74597 67.6109 10.7774C66.5795 11.8089 66 13.2078 66 14.6665V32.9998C66 34.4585 66.5795 35.8575 67.6109 36.8889C68.6424 37.9204 70.0413 38.4998 71.5 38.4998H91.6667V43.9998C91.6665 44.3453 91.764 44.6838 91.9479 44.9762C92.1317 45.2687 92.3945 45.5033 92.7058 45.6529C93.0172 45.8026 93.3645 45.8612 93.7077 45.822C94.051 45.7829 94.3762 45.6476 94.6458 45.4317L103.31 38.4998H104.5C105.959 38.4998 107.358 37.9204 108.389 36.8889C109.421 35.8575 110 34.4585 110 32.9998V27.4998C110 27.0136 109.807 26.5473 109.463 26.2035C109.119 25.8597 108.653 25.6665 108.167 25.6665C107.68 25.6665 107.214 25.8597 106.87 26.2035C106.526 26.5473 106.333 27.0136 106.333 27.4998V32.9998C106.333 33.4861 106.14 33.9524 105.796 34.2962C105.453 34.64 104.986 34.8332 104.5 34.8332H102.667C102.25 34.833 101.846 34.9746 101.521 35.2347L95.3333 40.1847V36.6665C95.3333 36.1803 95.1402 35.714 94.7964 35.3701C94.4525 35.0263 93.9862 34.8332 93.5 34.8332H71.5C71.0138 34.8332 70.5475 34.64 70.2036 34.2962C69.8598 33.9524 69.6667 33.4861 69.6667 32.9998V14.6665C69.6667 14.1803 69.8598 13.714 70.2036 13.3701C70.5475 13.0263 71.0138 12.8332 71.5 12.8332H104.5C104.986 12.8332 105.453 13.0263 105.796 13.3701C106.14 13.714 106.333 14.1803 106.333 14.6665V20.1665C106.333 20.6527 106.526 21.119 106.87 21.4629C107.214 21.8067 107.68 21.9998 108.167 21.9998Z" fill="#685044"/>
<path d="M102.667 20.1668C102.667 19.6806 102.473 19.2143 102.13 18.8705C101.786 18.5267 101.32 18.3335 100.833 18.3335H80.6666C80.1804 18.3335 79.7141 18.5267 79.3703 18.8705C79.0265 19.2143 78.8333 19.6806 78.8333 20.1668C78.8333 20.6531 79.0265 21.1194 79.3703 21.4632C79.7141 21.807 80.1804 22.0002 80.6666 22.0002H100.833C101.32 22.0002 101.786 21.807 102.13 21.4632C102.473 21.1194 102.667 20.6531 102.667 20.1668Z" fill="#685044"/>
<path d="M75.1666 25.6665C74.6804 25.6665 74.2141 25.8597 73.8703 26.2035C73.5265 26.5473 73.3333 27.0136 73.3333 27.4998C73.3333 27.9861 73.5265 28.4524 73.8703 28.7962C74.2141 29.14 74.6804 29.3332 75.1666 29.3332H89.8333C90.3195 29.3332 90.7859 29.14 91.1297 28.7962C91.4735 28.4524 91.6666 27.9861 91.6666 27.4998C91.6666 27.0136 91.4735 26.5473 91.1297 26.2035C90.7859 25.8597 90.3195 25.6665 89.8333 25.6665H75.1666Z" fill="#685044"/>
<path d="M99 29.3332C100.013 29.3332 100.833 28.5124 100.833 27.4998C100.833 26.4873 100.013 25.6665 99 25.6665C97.9875 25.6665 97.1667 26.4873 97.1667 27.4998C97.1667 28.5124 97.9875 29.3332 99 29.3332Z" fill="#685044"/>
<path d="M7.33333 36.6667H14.6667C15.1529 36.6667 15.6192 36.4735 15.963 36.1297C16.3068 35.7859 16.5 35.3196 16.5 34.8333C16.5 34.3471 16.3068 33.8808 15.963 33.537C15.6192 33.1932 15.1529 33 14.6667 33H7.33333C6.36087 33 5.42824 32.6137 4.74061 31.9261C4.05298 31.2384 3.66667 30.3058 3.66667 29.3333V7.33333C3.66667 6.36087 4.05298 5.42824 4.74061 4.74061C5.42824 4.05298 6.36087 3.66667 7.33333 3.66667H51.3333C52.3058 3.66667 53.2384 4.05298 53.9261 4.74061C54.6137 5.42824 55 6.36087 55 7.33333V29.3333C55 30.3058 54.6137 31.2384 53.9261 31.9261C53.2384 32.6137 52.3058 33 51.3333 33H49.5C49.1982 33 48.9012 33.0744 48.6351 33.2167C48.369 33.359 48.1421 33.5648 47.9747 33.8158L42.1667 42.5333L36.3587 33.8213C36.1918 33.5693 35.9653 33.3624 35.6991 33.2191C35.433 33.0758 35.1356 33.0006 34.8333 33H22C21.5138 33 21.0475 33.1932 20.7036 33.537C20.3598 33.8808 20.1667 34.3471 20.1667 34.8333C20.1667 35.3196 20.3598 35.7859 20.7036 36.1297C21.0475 36.4735 21.5138 36.6667 22 36.6667H33.8525L40.6358 46.8508C40.8033 47.1019 41.0301 47.3078 41.2962 47.4502C41.5623 47.5926 41.8594 47.6671 42.1612 47.6671C42.463 47.6671 42.7601 47.5926 43.0262 47.4502C43.2923 47.3078 43.5191 47.1019 43.6865 46.8508L50.4808 36.6667H51.3333C53.2783 36.6667 55.1435 35.894 56.5188 34.5188C57.894 33.1435 58.6667 31.2783 58.6667 29.3333V7.33333C58.6667 5.38841 57.894 3.52315 56.5188 2.14788C55.1435 0.772617 53.2783 0 51.3333 0H7.33333C5.38841 0 3.52315 0.772617 2.14788 2.14788C0.772617 3.52315 0 5.38841 0 7.33333V29.3333C0 31.2783 0.772617 33.1435 2.14788 34.5188C3.52315 35.894 5.38841 36.6667 7.33333 36.6667Z" fill="#685044"/>
<path d="M44 27.5002C45.0125 27.5002 45.8334 26.6794 45.8334 25.6668C45.8334 24.6543 45.0125 23.8335 44 23.8335C42.9875 23.8335 42.1667 24.6543 42.1667 25.6668C42.1667 26.6794 42.9875 27.5002 44 27.5002Z" fill="#685044"/>
<path d="M36.6666 27.5002C37.6792 27.5002 38.5 26.6794 38.5 25.6668C38.5 24.6543 37.6792 23.8335 36.6666 23.8335C35.6541 23.8335 34.8333 24.6543 34.8333 25.6668C34.8333 26.6794 35.6541 27.5002 36.6666 27.5002Z" fill="#685044"/>
<path d="M47.6666 9.1665H20.1666C19.6804 9.1665 19.2141 9.35966 18.8703 9.70348C18.5265 10.0473 18.3333 10.5136 18.3333 10.9998C18.3333 11.4861 18.5265 11.9524 18.8703 12.2962C19.2141 12.64 19.6804 12.8332 20.1666 12.8332H47.6666C48.1529 12.8332 48.6192 12.64 48.963 12.2962C49.3068 11.9524 49.5 11.4861 49.5 10.9998C49.5 10.5136 49.3068 10.0473 48.963 9.70348C48.6192 9.35966 48.1529 9.1665 47.6666 9.1665Z" fill="#685044"/>
<path d="M11 18.3333C11 18.8196 11.1932 19.2859 11.537 19.6297C11.8808 19.9735 12.3471 20.1667 12.8333 20.1667H29.3333C29.8196 20.1667 30.2859 19.9735 30.6297 19.6297C30.9735 19.2859 31.1667 18.8196 31.1667 18.3333C31.1667 17.8471 30.9735 17.3808 30.6297 17.037C30.2859 16.6932 29.8196 16.5 29.3333 16.5H12.8333C12.3471 16.5 11.8808 16.6932 11.537 17.037C11.1932 17.3808 11 17.8471 11 18.3333Z" fill="#685044"/>
<path d="M12.8333 27.5002H29.3333C29.8196 27.5002 30.2859 27.307 30.6297 26.9632C30.9735 26.6194 31.1667 26.1531 31.1667 25.6668C31.1667 25.1806 30.9735 24.7143 30.6297 24.3705C30.2859 24.0267 29.8196 23.8335 29.3333 23.8335H12.8333C12.3471 23.8335 11.8808 24.0267 11.537 24.3705C11.1932 24.7143 11 25.1806 11 25.6668C11 26.1531 11.1932 26.6194 11.537 26.9632C11.8808 27.307 12.3471 27.5002 12.8333 27.5002V27.5002Z" fill="#685044"/>
<path d="M49.5 18.3333C49.5 17.8471 49.3069 17.3808 48.9631 17.037C48.6192 16.6932 48.1529 16.5 47.6667 16.5H38.5C38.0138 16.5 37.5475 16.6932 37.2037 17.037C36.8598 17.3808 36.6667 17.8471 36.6667 18.3333C36.6667 18.8196 36.8598 19.2859 37.2037 19.6297C37.5475 19.9735 38.0138 20.1667 38.5 20.1667H47.6667C48.1529 20.1667 48.6192 19.9735 48.9631 19.6297C49.3069 19.2859 49.5 18.8196 49.5 18.3333Z" fill="#685044"/>
</svg>
