<svg width="114" height="110" viewBox="0 0 114 110" fill="none" xmlns="http://www.w3.org/2000/svg">
<path d="M104.765 0H8.49444C6.24158 0 4.08098 0.543246 2.48796 1.51023C0.894947 2.47722 0 3.78873 0 5.15625V104.844C0 106.211 0.894947 107.523 2.48796 108.49C4.08098 109.457 6.24158 110 8.49444 110H104.765C107.018 110 109.178 109.457 110.771 108.49C112.364 107.523 113.259 106.211 113.259 104.844V5.15625C113.259 3.78873 112.364 2.47722 110.771 1.51023C109.178 0.543246 107.018 0 104.765 0V0ZM5.66296 13.75H107.596V96.25H5.66296V13.75ZM5.66296 5.15625C5.66296 4.70041 5.96128 4.26324 6.49229 3.94091C7.02329 3.61858 7.74349 3.4375 8.49444 3.4375H104.765C105.516 3.4375 106.236 3.61858 106.767 3.94091C107.298 4.26324 107.596 4.70041 107.596 5.15625V10.3125H5.66296V5.15625ZM107.596 104.844C107.596 105.3 107.298 105.737 106.767 106.059C106.236 106.381 105.516 106.562 104.765 106.562H8.49444C7.74349 106.562 7.02329 106.381 6.49229 106.059C5.96128 105.737 5.66296 105.3 5.66296 104.844V99.6875H107.596V104.844Z" fill="#685044"/>
<path d="M20.0546 51.6084C23.121 53.142 26.5972 53.9492 30.1356 53.9492C33.6739 53.9492 37.1502 53.142 40.2166 51.6084C44.1021 49.6768 47.1439 46.6841 48.8689 43.0957C50.5939 39.5072 50.9053 35.5242 49.7548 31.7662C48.6043 28.0081 46.0563 24.6856 42.5072 22.3154C38.958 19.9452 34.6067 18.6602 30.1298 18.6602C25.6529 18.6602 21.3015 19.9452 17.7524 22.3154C14.2032 24.6856 11.6553 28.0081 10.5048 31.7662C9.35428 35.5242 9.66574 39.5072 11.3907 43.0957C13.1157 46.6841 16.1575 49.6768 20.043 51.6084H20.0546ZM27.2404 36.3128C27.2404 35.8144 27.4105 35.3272 27.7293 34.9128C28.0481 34.4984 28.5011 34.1755 29.0312 33.9847C29.5613 33.794 30.1446 33.7441 30.7074 33.8414C31.2701 33.9386 31.787 34.1786 32.1927 34.531C32.5984 34.8834 32.8747 35.3324 32.9867 35.8212C33.0986 36.31 33.0412 36.8167 32.8216 37.2771C32.602 37.7376 32.2302 38.1311 31.7531 38.408C31.276 38.6849 30.7152 38.8327 30.1414 38.8327C29.372 38.8327 28.6341 38.5672 28.0901 38.0946C27.546 37.622 27.2404 36.9811 27.2404 36.3128ZM24.4728 47.9042C24.4728 47.8764 24.4728 47.8487 24.4728 47.821C24.503 47.7102 24.5398 47.6009 24.5831 47.4934C24.6429 47.3067 24.7156 47.1233 24.8007 46.9441C24.8558 46.8332 24.9225 46.7249 24.9892 46.619C25.0812 46.4565 25.1849 46.2991 25.2996 46.1478C25.3779 46.0445 25.465 45.9437 25.552 45.848C25.6759 45.7074 25.8086 45.5728 25.9494 45.4448C26.051 45.3541 26.1496 45.2659 26.257 45.1928C26.4103 45.0743 26.5711 44.9633 26.7385 44.8602C26.8517 44.7871 26.9648 44.714 27.0866 44.6485C27.2701 44.5561 27.4589 44.472 27.6523 44.3965C27.7742 44.3461 27.8931 44.2907 28.0179 44.2478C28.2417 44.1756 28.4704 44.1151 28.7025 44.0664C28.8156 44.0437 28.923 44.0059 29.039 43.9883C29.4014 43.9194 29.7705 43.8806 30.1414 43.8724C30.5116 43.8743 30.8808 43.9072 31.2438 43.9707C31.3627 43.9883 31.4759 44.0236 31.5948 44.0513C31.8261 44.1008 32.0537 44.1622 32.2765 44.2352C32.4071 44.2806 32.5318 44.3386 32.6566 44.3915C32.8496 44.466 33.0375 44.5502 33.2194 44.6435C33.3441 44.7115 33.463 44.7871 33.5791 44.8602C33.7444 44.9685 33.904 45.0819 34.0578 45.2029C34.1651 45.286 34.2666 45.3742 34.3682 45.4675C34.5103 45.601 34.6438 45.7421 34.7685 45.8858C34.8526 45.984 34.9397 46.0798 35.018 46.1806C35.1369 46.3444 35.2385 46.5182 35.34 46.6846C35.3951 46.7853 35.4589 46.8786 35.5083 46.9844C35.6139 47.2147 35.7001 47.4514 35.7664 47.6925C35.7664 47.753 35.81 47.8084 35.8245 47.8689C34.0315 48.5349 32.1028 48.8812 30.1528 48.8872C28.2028 48.8933 26.2712 48.559 24.4728 47.9042ZM30.1414 23.7135C32.9661 23.7089 35.7307 24.4214 38.0953 25.7636C40.4599 27.1057 42.3214 29.0189 43.4507 31.2679C44.5801 33.5168 44.928 36.0034 44.4519 38.4219C43.9758 40.8403 42.6962 43.0852 40.7707 44.8803C40.5114 44.3829 40.2068 43.9043 39.8598 43.4491C39.7698 43.3331 39.6799 43.2223 39.5871 43.1089C39.2484 42.6927 38.8741 42.2993 38.4673 41.9321C38.4064 41.8792 38.357 41.8187 38.2932 41.7658C37.9212 41.4369 37.5238 41.1305 37.1038 40.8485C37.1531 40.7931 37.1879 40.7276 37.2344 40.6722C37.3417 40.5411 37.4345 40.4025 37.5245 40.269C37.704 40.0169 37.8667 39.7561 38.0118 39.4878C38.0931 39.3392 38.1685 39.193 38.2381 39.0393C38.3654 38.7453 38.4719 38.4449 38.5572 38.1397C38.6007 37.9986 38.65 37.86 38.682 37.7164C38.929 36.6212 38.8939 35.4921 38.5791 34.4102C38.2643 33.3282 37.6776 32.3202 36.8611 31.4585C36.0446 30.5969 35.0187 29.9029 33.8569 29.4265C32.695 28.95 31.4262 28.703 30.1414 28.703C28.8566 28.703 27.5878 28.95 26.4259 29.4265C25.2641 29.9029 24.2382 30.5969 23.4217 31.4585C22.6052 32.3202 22.0185 33.3282 21.7037 34.4102C21.3889 35.4921 21.3538 36.6212 21.6008 37.7164C21.6328 37.8625 21.6821 38.0011 21.7256 38.1447C21.8109 38.4494 21.9185 38.749 22.0476 39.0418C22.1143 39.1955 22.1926 39.3417 22.271 39.4903C22.415 39.7583 22.5777 40.0183 22.7583 40.269C22.8541 40.4051 22.9469 40.5436 23.0484 40.6747C23.0949 40.7301 23.1297 40.7956 23.179 40.8511C22.7575 41.1288 22.3581 41.431 21.9838 41.7557C21.92 41.8086 21.8706 41.8691 21.8097 41.922C21.4029 42.2893 21.0286 42.6826 20.6899 43.0988C20.5971 43.2122 20.5072 43.3231 20.4172 43.439C20.0702 43.8942 19.7656 44.3728 19.5063 44.8703C17.5842 43.0744 16.3079 40.83 15.8341 38.4128C15.3603 35.9955 15.7097 33.5107 16.8393 31.2636C17.9689 29.0164 19.8295 27.1048 22.1927 25.7635C24.5558 24.4222 27.3185 23.7097 30.1414 23.7135Z" fill="#685044"/>
<path d="M62.0524 26.2326H96.8645C97.6339 26.2326 98.3718 25.9671 98.9158 25.4945C99.4599 25.022 99.7655 24.381 99.7655 23.7127C99.7655 23.0444 99.4599 22.4035 98.9158 21.9309C98.3718 21.4584 97.6339 21.1929 96.8645 21.1929H62.0524C61.283 21.1929 60.5452 21.4584 60.0011 21.9309C59.4571 22.4035 59.1514 23.0444 59.1514 23.7127C59.1514 24.381 59.4571 25.022 60.0011 25.4945C60.5452 25.9671 61.283 26.2326 62.0524 26.2326Z" fill="#685044"/>
<path d="M64.9534 31.2725C64.184 31.2725 63.4462 31.5379 62.9021 32.0105C62.3581 32.4831 62.0524 33.124 62.0524 33.7923C62.0524 34.4606 62.3581 35.1016 62.9021 35.5741C63.4462 36.0467 64.184 36.3122 64.9534 36.3122H67.8544C68.6238 36.3122 69.3617 36.0467 69.9058 35.5741C70.4498 35.1016 70.7555 34.4606 70.7555 33.7923C70.7555 33.124 70.4498 32.4831 69.9058 32.0105C69.3617 31.5379 68.6238 31.2725 67.8544 31.2725H64.9534Z" fill="#685044"/>
<path d="M79.4584 31.2725C78.689 31.2725 77.9512 31.5379 77.4071 32.0105C76.8631 32.4831 76.5574 33.124 76.5574 33.7923C76.5574 34.4606 76.8631 35.1016 77.4071 35.5741C77.9512 36.0467 78.689 36.3122 79.4584 36.3122H82.3594C83.1288 36.3122 83.8667 36.0467 84.4108 35.5741C84.9548 35.1016 85.2604 34.4606 85.2604 33.7923C85.2604 33.124 84.9548 32.4831 84.4108 32.0105C83.8667 31.5379 83.1288 31.2725 82.3594 31.2725H79.4584Z" fill="#685044"/>
<path d="M96.8645 31.2725H93.9634C93.1941 31.2725 92.4562 31.5379 91.9121 32.0105C91.3681 32.4831 91.0624 33.124 91.0624 33.7923C91.0624 34.4606 91.3681 35.1016 91.9121 35.5741C92.4562 36.0467 93.1941 36.3122 93.9634 36.3122H96.8645C97.6339 36.3122 98.3717 36.0467 98.9158 35.5741C99.4598 35.1016 99.7655 34.4606 99.7655 33.7923C99.7655 33.124 99.4598 32.4831 98.9158 32.0105C98.3717 31.5379 97.6339 31.2725 96.8645 31.2725Z" fill="#685044"/>
<path d="M93.9635 38.832H64.9534C62.6453 38.832 60.4316 39.6285 58.7995 41.0462C57.1674 42.4639 56.2504 44.3867 56.2504 46.3916C56.2504 48.3965 57.1674 50.3194 58.7995 51.7371C60.4316 53.1548 62.6453 53.9512 64.9534 53.9512H93.9635C96.2717 53.9512 98.4853 53.1548 100.117 51.7371C101.75 50.3194 102.666 48.3965 102.666 46.3916C102.666 44.3867 101.75 42.4639 100.117 41.0462C98.4853 39.6285 96.2717 38.832 93.9635 38.832ZM93.9635 48.9115H64.9534C64.184 48.9115 63.4462 48.646 62.9021 48.1734C62.3581 47.7009 62.0524 47.0599 62.0524 46.3916C62.0524 45.7233 62.3581 45.0824 62.9021 44.6098C63.4462 44.1372 64.184 43.8718 64.9534 43.8718H93.9635C94.7329 43.8718 95.4708 44.1372 96.0148 44.6098C96.5588 45.0824 96.8645 45.7233 96.8645 46.3916C96.8645 47.0599 96.5588 47.7009 96.0148 48.1734C95.4708 48.646 94.7329 48.9115 93.9635 48.9115Z" fill="#685044"/>
<path d="M24.3394 84.1898C27.2082 84.1898 30.0126 83.4509 32.3979 82.0665C34.7833 80.682 36.6424 78.7143 37.7403 76.4121C38.8381 74.1099 39.1254 71.5766 38.5657 69.1325C38.006 66.6885 36.6245 64.4435 34.596 62.6815C32.5674 60.9194 29.9829 59.7195 27.1692 59.2333C24.3555 58.7472 21.439 58.9967 18.7885 59.9503C16.1381 60.9039 13.8727 62.5188 12.2789 64.5907C10.6851 66.6627 9.83435 69.0986 9.83435 71.5905C9.83896 74.9308 11.3686 78.1332 14.0879 80.4952C16.8071 82.8571 20.4938 84.1858 24.3394 84.1898ZM24.3394 64.0309C26.0607 64.0309 27.7433 64.4743 29.1745 65.305C30.6057 66.1356 31.7212 67.3163 32.3799 68.6976C33.0386 70.0789 33.211 71.5989 32.8752 73.0653C32.5393 74.5317 31.7105 75.8787 30.4933 76.936C29.2762 77.9932 27.7255 78.7132 26.0372 79.0049C24.349 79.2965 22.5991 79.1468 21.0089 78.5747C19.4186 78.0025 18.0594 77.0336 17.1031 75.7904C16.1468 74.5472 15.6364 73.0857 15.6364 71.5905C15.6364 69.5856 16.5533 67.6628 18.1854 66.2451C19.8175 64.8274 22.0312 64.0309 24.3394 64.0309Z" fill="#685044"/>
<path d="M70.7554 71.5905C70.7554 69.0986 69.9047 66.6627 68.3109 64.5907C66.7171 62.5188 64.4517 60.9039 61.8012 59.9503C59.1508 58.9967 56.2343 58.7472 53.4206 59.2333C50.6069 59.7195 48.0224 60.9194 45.9938 62.6815C43.9652 64.4435 42.5838 66.6885 42.0241 69.1325C41.4644 71.5766 41.7516 74.1099 42.8495 76.4121C43.9473 78.7143 45.8065 80.682 48.1918 82.0665C50.5772 83.4509 53.3816 84.1898 56.2504 84.1898C60.096 84.1858 63.7827 82.8571 66.5019 80.4952C69.2211 78.1332 70.7508 74.9308 70.7554 71.5905ZM56.2504 79.1501C54.5291 79.1501 52.8465 78.7068 51.4153 77.8761C49.9841 77.0454 48.8686 75.8648 48.2099 74.4835C47.5511 73.1021 47.3788 71.5821 47.7146 70.1157C48.0504 68.6493 48.8793 67.3023 50.0964 66.2451C51.3136 65.1879 52.8643 64.4679 54.5525 64.1762C56.2407 63.8845 57.9906 64.0342 59.5809 64.6064C61.1712 65.1785 62.5304 66.1475 63.4867 67.3906C64.443 68.6338 64.9534 70.0954 64.9534 71.5905C64.9534 73.5955 64.0365 75.5183 62.4044 76.936C60.7722 78.3537 58.5586 79.1501 56.2504 79.1501Z" fill="#685044"/>
<path d="M88.1615 58.9912C85.2926 58.9912 82.4882 59.7301 80.1029 61.1146C77.7176 62.499 75.8584 64.4667 74.7606 66.769C73.6627 69.0712 73.3755 71.6045 73.9351 74.0485C74.4948 76.4926 75.8763 78.7375 77.9049 80.4996C79.9334 82.2616 82.518 83.4616 85.3317 83.9477C88.1454 84.4339 91.0619 84.1844 93.7123 83.2308C96.3627 82.2771 98.6281 80.6623 100.222 78.5903C101.816 76.5184 102.666 74.0824 102.666 71.5905C102.662 68.2502 101.132 65.0478 98.413 62.6859C95.6938 60.3239 92.007 58.9952 88.1615 58.9912ZM88.1615 79.1501C86.4402 79.1501 84.7575 78.7067 83.3263 77.8761C81.8951 77.0454 80.7796 75.8648 80.1209 74.4834C79.4622 73.1021 79.2899 71.5821 79.6257 70.1157C79.9615 68.6493 80.7904 67.3023 82.0075 66.2451C83.2246 65.1879 84.7754 64.4679 86.4636 64.1762C88.1518 63.8845 89.9017 64.0342 91.492 64.6064C93.0822 65.1785 94.4415 66.1475 95.3978 67.3906C96.3541 68.6338 96.8645 70.0954 96.8645 71.5905C96.8645 73.5954 95.9476 75.5183 94.3154 76.936C92.6833 78.3536 90.4696 79.1501 88.1615 79.1501Z" fill="#685044"/>
<path d="M21.4384 74.1104C21.4384 74.7787 21.744 75.4196 22.288 75.8922C22.8321 76.3647 23.57 76.6302 24.3394 76.6302C25.1088 76.6302 25.8466 76.3647 26.3907 75.8922C26.9347 75.4196 27.2404 74.7787 27.2404 74.1104C28.0098 74.1104 28.7476 73.8449 29.2917 73.3723C29.8357 72.8997 30.1414 72.2588 30.1414 71.5905C30.1414 70.9222 29.8357 70.2813 29.2917 69.8087C28.7476 69.3361 28.0098 69.0706 27.2404 69.0706C27.2404 68.4023 26.9347 67.7614 26.3907 67.2888C25.8466 66.8163 25.1088 66.5508 24.3394 66.5508C23.57 66.5508 22.8321 66.8163 22.288 67.2888C21.744 67.7614 21.4384 68.4023 21.4384 69.0706C20.669 69.0706 19.9311 69.3361 19.387 69.8087C18.843 70.2813 18.5374 70.9222 18.5374 71.5905C18.5374 72.2588 18.843 72.8997 19.387 73.3723C19.9311 73.8449 20.669 74.1104 21.4384 74.1104Z" fill="#685044"/>
<path d="M24.3394 89.2295C23.57 89.2295 22.8321 89.495 22.288 89.9675C21.744 90.4401 21.4384 91.081 21.4384 91.7494C21.4384 92.4177 21.744 93.0586 22.288 93.5312C22.8321 94.0037 23.57 94.2692 24.3394 94.2692H30.1414C30.9108 94.2692 31.6486 94.0037 32.1927 93.5312C32.7367 93.0586 33.0424 92.4177 33.0424 91.7494C33.0424 91.081 32.7367 90.4401 32.1927 89.9675C31.6486 89.495 30.9108 89.2295 30.1414 89.2295H24.3394Z" fill="#685044"/>
<path d="M53.3494 89.2295C52.58 89.2295 51.8421 89.495 51.298 89.9675C50.754 90.4401 50.4484 91.081 50.4484 91.7494C50.4484 92.4177 50.754 93.0586 51.298 93.5312C51.8421 94.0037 52.58 94.2692 53.3494 94.2692H59.1514C59.9208 94.2692 60.6587 94.0037 61.2027 93.5312C61.7467 93.0586 62.0524 92.4177 62.0524 91.7494C62.0524 91.081 61.7467 90.4401 61.2027 89.9675C60.6587 89.495 59.9208 89.2295 59.1514 89.2295H53.3494Z" fill="#685044"/>
<path d="M88.1614 94.2692C88.9308 94.2692 89.6687 94.0037 90.2128 93.5312C90.7568 93.0586 91.0624 92.4177 91.0624 91.7494C91.0624 91.081 90.7568 90.4401 90.2128 89.9675C89.6687 89.495 88.9308 89.2295 88.1614 89.2295H82.3594C81.59 89.2295 80.8522 89.495 80.3081 89.9675C79.7641 90.4401 79.4584 91.081 79.4584 91.7494C79.4584 92.4177 79.7641 93.0586 80.3081 93.5312C80.8522 94.0037 81.59 94.2692 82.3594 94.2692H88.1614Z" fill="#685044"/>
</svg>
