<svg width="110" height="110" viewBox="0 0 110 110" fill="none" xmlns="http://www.w3.org/2000/svg">
<path d="M97.5807 77.3433H65.6451V87.6558H97.5807C100.874 87.6558 104.033 86.3882 106.362 84.1319C108.692 81.8756 110 78.8154 110 75.6245V34.3745C110 31.1836 108.692 28.1234 106.362 25.8671C104.033 23.6108 100.874 22.3433 97.5807 22.3433H65.6451V32.6558H97.5807C98.0512 32.6558 98.5025 32.8368 98.8352 33.1592C99.1679 33.4815 99.3548 33.9187 99.3548 34.3745V75.6245C99.3548 76.0803 99.1679 76.5175 98.8352 76.8398C98.5025 77.1622 98.0512 77.3433 97.5807 77.3433Z" fill="#685044"/>
<path d="M0 75.625C0 78.8159 1.30847 81.8761 3.63755 84.1324C5.96663 86.3887 9.12554 87.6562 12.4194 87.6562H42.5807V110H53.2258V0H42.5807V22.3438H12.4194C9.12554 22.3438 5.96663 23.6113 3.63755 25.8676C1.30847 28.1239 0 31.1841 0 34.375V75.625ZM10.6452 34.375C10.6452 33.9192 10.8321 33.482 11.1648 33.1597C11.4975 32.8373 11.9488 32.6562 12.4194 32.6562H42.5807V77.3438H12.4194C11.9488 77.3438 11.4975 77.1627 11.1648 76.8403C10.8321 76.518 10.6452 76.0808 10.6452 75.625V34.375Z" fill="#685044"/>
</svg>
