<svg width="110" height="110" viewBox="0 0 110 110" fill="none" xmlns="http://www.w3.org/2000/svg">
<path d="M109.689 54.1216L101.245 36.3302C100.856 35.5395 100.206 35.0123 99.4267 34.6169L56.0392 19.1977C55.3897 18.9341 54.6103 18.9341 53.9608 19.1977L10.7032 34.6169C9.92377 34.8805 9.27426 35.5395 8.88455 36.3302L0.310971 54.1216C-0.0787371 54.9124 -0.078737 55.9667 0.181068 56.7574C0.570776 57.6799 1.22029 58.3389 2.12961 58.6025L8.49484 60.8429V91.4178C8.49484 92.8675 9.40416 94.0536 10.7032 94.4489L53.9608 109.868C54.3505 110 54.6103 110 55 110C55.3897 110 55.7794 110 56.0392 109.868L99.2968 94.4489C100.596 93.9218 101.505 92.7357 101.505 91.4178V60.9747L107.87 58.7342C108.78 58.4707 109.429 57.8117 109.819 56.8892C110.079 55.9667 110.079 55.0442 109.689 54.1216ZM55 25.7871L88.5149 37.7799L55 49.6408L21.4851 37.6481L55 25.7871ZM13.4311 41.7335L50.5833 54.9124L44.8676 66.7733L7.71542 53.5945L13.4311 41.7335ZM14.99 63.2151L45.5171 74.0217C45.9068 74.1535 46.1666 74.1535 46.5563 74.1535C47.7254 74.1535 48.8946 73.4946 49.4142 72.3085L51.7524 67.3005V102.093L14.99 88.9138V63.2151ZM95.01 89.1774L58.2476 102.356V67.4323L60.5858 72.4403C61.1054 73.6264 62.2745 74.2853 63.4437 74.2853C63.8334 74.2853 64.2231 74.2853 64.4829 74.1535L95.01 63.3469V89.1774ZM65.1324 66.9051L59.4167 55.0442L96.5689 41.8653L102.285 53.7263L65.1324 66.9051Z" fill="#685044"/>
<path d="M55 19.2413C56.8186 19.2413 58.2476 17.9663 58.2476 16.3435V2.89779C58.2476 1.27503 56.8186 0 55 0C53.1814 0 51.7524 1.27503 51.7524 2.89779V16.4594C51.7524 17.9663 53.1814 19.2413 55 19.2413Z" fill="#685044"/>
<path d="M75.6546 24.5734C76.1742 24.9212 76.8237 25.0371 77.3433 25.0371C78.3825 25.0371 79.4217 24.5734 80.0713 23.6461L88.1252 12.1709C89.0345 10.78 88.6448 9.04129 87.086 8.22991C85.5272 7.41853 83.5786 7.76626 82.6693 9.1572L74.6153 20.6324C73.706 21.9075 74.2256 23.762 75.6546 24.5734Z" fill="#685044"/>
<path d="M29.7989 23.6461C30.4484 24.5734 31.4877 25.0371 32.5269 25.0371C33.0465 25.0371 33.696 24.9212 34.2156 24.5734C35.7744 23.762 36.1641 21.9075 35.2548 20.6324L27.2009 9.1572C26.2915 7.76626 24.2131 7.41853 22.7842 8.22991C21.2253 9.04129 20.8356 10.8959 21.745 12.1709L29.7989 23.6461Z" fill="#685044"/>
</svg>
