<svg width="110" height="100" viewBox="0 0 110 100" fill="none" xmlns="http://www.w3.org/2000/svg">
<path d="M91.6667 14.2857H80.3688L76.7708 8.70239C75.0593 6.02443 72.7363 3.82827 70.0092 2.30982C67.2822 0.791359 64.2357 -0.00217475 61.1417 4.47636e-06H48.8583C45.7643 -0.00217475 42.7178 0.791359 39.9908 2.30982C37.2637 3.82827 34.9407 6.02443 33.2292 8.70239L29.6313 14.2857H18.3333C13.471 14.2857 8.80788 16.2925 5.36971 19.8646C1.93154 23.4368 0 28.2816 0 33.3333V80.9524C0 86.0041 1.93154 90.849 5.36971 94.4211C8.80788 97.9932 13.471 100 18.3333 100H91.6667C96.529 100 101.192 97.9932 104.63 94.4211C108.068 90.849 110 86.0041 110 80.9524V33.3333C110 28.2816 108.068 23.4368 104.63 19.8646C101.192 16.2925 96.529 14.2857 91.6667 14.2857ZM100.833 80.9524C100.833 83.4782 99.8676 85.9007 98.1485 87.6867C96.4294 89.4728 94.0978 90.4762 91.6667 90.4762H18.3333C15.9022 90.4762 13.5706 89.4728 11.8515 87.6867C10.1324 85.9007 9.16667 83.4782 9.16667 80.9524V33.3333C9.16667 30.8075 10.1324 28.385 11.8515 26.599C13.5706 24.8129 15.9022 23.8095 18.3333 23.8095H34.5354L40.8375 13.9762C41.7184 12.6055 42.9114 11.4819 44.3106 10.7052C45.7098 9.92848 47.2719 9.52268 48.8583 9.52381H61.1417C62.7281 9.52268 64.2902 9.92848 65.6894 10.7052C67.0886 11.4819 68.2816 12.6055 69.1625 13.9762L75.4646 23.8095H91.6667C94.0978 23.8095 96.4294 24.8129 98.1485 26.599C99.8676 28.385 100.833 30.8075 100.833 33.3333V80.9524Z" fill="#685044"/>
<path d="M23.7156 36.8972C26.5024 36.8972 28.7615 34.6393 28.7615 31.8541C28.7615 29.0689 26.5024 26.811 23.7156 26.811C20.9289 26.811 18.6697 29.0689 18.6697 31.8541C18.6697 34.6393 20.9289 36.8972 23.7156 36.8972Z" fill="#685044"/>
<path d="M55.2752 30.0771C50.3307 30.0771 45.4972 31.5434 41.386 34.2904C37.2748 37.0374 34.0705 40.9419 32.1783 45.5101C30.2861 50.0782 29.791 55.1049 30.7556 59.9544C31.7202 64.8039 34.1013 69.2585 37.5976 72.7548C41.0939 76.2511 45.5485 78.6321 50.398 79.5968C55.2475 80.5614 60.2742 80.0663 64.8423 78.1741C69.4105 76.2819 73.3149 73.0776 76.062 68.9664C78.809 64.8552 80.2752 60.0217 80.2752 55.0771C80.2752 48.4467 77.6413 42.0879 72.9529 37.3995C68.2645 32.7111 61.9057 30.0771 55.2752 30.0771ZM55.2752 70.0771C52.3085 70.0771 49.4084 69.1974 46.9417 67.5492C44.475 65.901 42.5524 63.5583 41.4171 60.8174C40.2817 58.0765 39.9847 55.0605 40.5635 52.1508C41.1422 49.2411 42.5709 46.5683 44.6686 44.4705C46.7664 42.3728 49.4392 40.9441 52.3489 40.3654C55.2586 39.7866 58.2746 40.0836 61.0155 41.219C63.7564 42.3543 66.0991 44.2769 67.7473 46.7436C69.3955 49.2103 70.2752 52.1104 70.2752 55.0771C70.2752 59.0554 68.6949 62.8707 65.8818 65.6837C63.0688 68.4968 59.2535 70.0771 55.2752 70.0771Z" fill="#685044"/>
</svg>
