<svg width="110" height="110" viewBox="0 0 110 110" fill="none" xmlns="http://www.w3.org/2000/svg">
<path d="M29.4186 0C24.5247 0 20.4651 4.1563 20.4651 9.16667V13.0952H8.95349C4.05954 13.0952 0 17.2514 0 22.2619V100.833C0 105.844 4.05954 110 8.95349 110H101.047C105.94 110 110 105.844 110 100.833V22.2619C110 17.2514 105.94 13.0952 101.047 13.0952H89.5349V9.16667C89.5349 4.1563 85.4753 0 80.5814 0C75.6875 0 71.6279 4.1563 71.6279 9.16667V13.0952H38.3721V9.16667C38.3721 4.1563 34.3125 0 29.4186 0ZM29.4186 7.85714C30.1936 7.85714 30.6977 8.37323 30.6977 9.16667V24.881C30.6977 25.6744 30.1936 26.1905 29.4186 26.1905C28.6436 26.1905 28.1395 25.6744 28.1395 24.881V9.16667C28.1395 8.37323 28.6436 7.85714 29.4186 7.85714ZM80.5814 7.85714C81.3564 7.85714 81.8605 8.37323 81.8605 9.16667V24.881C81.8605 25.6744 81.3564 26.1905 80.5814 26.1905C79.8064 26.1905 79.3023 25.6744 79.3023 24.881V9.16667C79.3023 8.37323 79.8064 7.85714 80.5814 7.85714ZM8.95349 20.9524H20.4651V24.881C20.4651 29.8913 24.5247 34.0476 29.4186 34.0476C34.3125 34.0476 38.3721 29.8913 38.3721 24.881V20.9524H71.6279V24.881C71.6279 29.8913 75.6875 34.0476 80.5814 34.0476C85.4753 34.0476 89.5349 29.8913 89.5349 24.881V20.9524H101.047C101.821 20.9524 102.326 21.4689 102.326 22.2619V36.6667H7.67442V22.2619C7.67442 21.4689 8.17888 20.9524 8.95349 20.9524ZM7.67442 44.5238H102.326V100.833C102.326 101.626 101.821 102.143 101.047 102.143H8.95349C8.17888 102.143 7.67442 101.626 7.67442 100.833V44.5238Z" fill="#685044"/>
</svg>
