<svg width="110" height="110" viewBox="0 0 110 110" fill="none" xmlns="http://www.w3.org/2000/svg">
<path d="M32.5272 62.7139H24.3852C22.1369 62.7139 20.3142 64.5358 20.3142 66.7834C20.3142 69.0309 22.1369 70.8529 24.3852 70.8529H32.5272C34.7756 70.8529 36.5982 69.0309 36.5982 66.7834C36.5982 64.5358 34.7756 62.7139 32.5272 62.7139Z" fill="#685044"/>
<path d="M56.9532 80.6187H24.3852C22.1369 80.6187 20.3142 82.4406 20.3142 84.6882C20.3142 86.9357 22.1369 88.7577 24.3852 88.7577H56.9532C59.2015 88.7577 61.0242 86.9357 61.0242 84.6882C61.0242 82.4406 59.2015 80.6187 56.9532 80.6187Z" fill="#685044"/>
<path d="M92.9 110H12.905C9.48241 110 6.19997 108.641 3.7798 106.221C1.35963 103.802 0 100.521 0 97.0996V17.0932C0 13.6718 1.35963 10.3906 3.7798 7.97129C6.19997 5.55201 9.48241 4.19287 12.905 4.19287H56.9532C58.0329 4.19287 59.0683 4.62162 59.8318 5.3848C60.5953 6.14798 61.0242 7.18307 61.0242 8.26237C61.0242 9.34167 60.5953 10.3768 59.8318 11.1399C59.0683 11.9031 58.0329 12.3319 56.9532 12.3319H12.905C12.2761 12.3265 11.6524 12.4457 11.0698 12.6826C10.4872 12.9194 9.95731 13.2693 9.5107 13.712C9.06409 14.1546 8.7096 14.6813 8.46769 15.2617C8.22579 15.842 8.10125 16.4645 8.10127 17.0932V97.0589C8.11191 98.3184 8.61714 99.5233 9.50809 100.414C10.399 101.305 11.6044 101.81 12.8643 101.82H92.9C94.16 101.81 95.3653 101.305 96.2563 100.414C97.1472 99.5233 97.6525 98.3184 97.6631 97.0589V53.0269C97.6631 51.9476 98.092 50.9125 98.8555 50.1493C99.6189 49.3861 100.654 48.9574 101.734 48.9574C102.814 48.9574 103.849 49.3861 104.613 50.1493C105.376 50.9125 105.805 51.9476 105.805 53.0269V97.0589C105.81 98.7564 105.481 100.438 104.834 102.008C104.188 103.578 103.239 105.005 102.04 106.207C100.841 107.409 99.4164 108.363 97.848 109.014C96.2796 109.665 94.5982 110 92.9 110Z" fill="#685044"/>
<path d="M59.5586 63.7305H46.2465V50.4232C46.2461 49.1677 46.494 47.9245 46.9761 46.7651C47.4582 45.6058 48.1649 44.5532 49.0554 43.6678L89.9689 2.68796C90.8096 1.83651 91.8111 1.16046 92.9153 0.699034C94.0194 0.237609 95.2043 0 96.4011 0C97.5978 0 98.7827 0.237609 99.8869 0.699034C100.991 1.16046 101.993 1.83651 102.833 2.68796L107.352 7.20511C108.192 8.04405 108.857 9.0401 109.312 10.1364C109.766 11.2326 110 12.4076 110 13.5942C110 14.7808 109.766 15.9558 109.312 17.0521C108.857 18.1483 108.192 19.1444 107.352 19.9833L66.1943 60.9225C64.4282 62.6801 62.0503 63.6863 59.5586 63.7305ZM54.3884 55.5915H59.5586C59.7467 55.5942 59.9335 55.5596 60.1082 55.4898C60.2829 55.4199 60.442 55.3162 60.5764 55.1845L101.49 14.2453C101.656 14.0776 101.75 13.8509 101.75 13.6146C101.75 13.3782 101.656 13.1515 101.49 12.9838L96.971 8.50735C96.8032 8.34085 96.5764 8.24741 96.34 8.24741C96.1036 8.24741 95.8768 8.34085 95.709 8.50735L54.7955 49.4465C54.6639 49.5809 54.5601 49.7399 54.4902 49.9145C54.4203 50.0891 54.3857 50.2759 54.3884 50.4639V55.5915Z" fill="#685044"/>
</svg>
