<svg width="110" height="110" viewBox="0 0 110 110" fill="none" xmlns="http://www.w3.org/2000/svg">
<path fill-rule="evenodd" clip-rule="evenodd" d="M0 9.71151C0 4.34926 4.35148 0 9.71151 0H100.288C105.651 0 110 4.35148 110 9.71151V100.288C110 105.651 105.649 110 100.288 110H9.71151C4.34926 110 0 105.649 0 100.288V9.71151ZM6.47059 40.4412V69.5588H33.9706V40.4412H6.47059ZM40.4412 40.4412V69.5588H69.5588V40.4412H40.4412ZM40.4412 6.47059V33.9706H69.5588V6.47059H40.4412ZM40.4412 76.0294V103.529H69.5588V76.0294H40.4412ZM76.0294 40.4412V69.5588H103.529V40.4412H76.0294ZM9.7049 6.47059C7.91853 6.47059 6.47059 7.91852 6.47059 9.70485V33.9706H33.9706V6.47059H9.7049ZM100.295 103.529C102.081 103.529 103.529 102.081 103.529 100.295V76.0294H76.0294V103.529H100.295ZM103.529 33.9706V9.70485C103.529 7.91852 102.081 6.47059 100.295 6.47059H76.0294V33.9706H103.529ZM6.47059 100.295C6.47059 102.081 7.91853 103.529 9.7049 103.529H33.9706V76.0294H6.47059V100.295Z" fill="#685044"/>
</svg>
