<svg width="244" height="78" viewBox="0 0 244 78" fill="none" xmlns="http://www.w3.org/2000/svg">
<g filter="url(#filter0_d)">
<path d="M49.3663 46.4749V57.0349H7.04625V48.6349L28.6463 28.2349C30.9396 26.0482 32.4863 24.1816 33.2863 22.6349C34.0863 21.0349 34.4863 19.4616 34.4863 17.9149C34.4863 15.6749 33.7129 13.9682 32.1663 12.7949C30.6729 11.5682 28.4596 10.9549 25.5262 10.9549C23.0729 10.9549 20.8596 11.4349 18.8863 12.3949C16.9129 13.3016 15.2596 14.6882 13.9263 16.5549L4.48625 10.4749C6.67292 7.22158 9.68625 4.68824 13.5263 2.87491C17.3663 1.00824 21.7663 0.0749111 26.7263 0.0749111C30.8863 0.0749111 34.5129 0.768243 37.6063 2.15491C40.7529 3.48824 43.1796 5.40824 44.8863 7.91491C46.6463 10.3682 47.5263 13.2749 47.5263 16.6349C47.5263 19.6749 46.8863 22.5282 45.6063 25.1949C44.3263 27.8616 41.8463 30.9016 38.1663 34.3149L25.2863 46.4749H49.3663ZM81.5175 21.9149C85.0908 21.9149 88.3442 22.6349 91.2775 24.0749C94.2108 25.5149 96.5308 27.5682 98.2375 30.2349C99.9442 32.8482 100.798 35.8882 100.798 39.3549C100.798 43.0882 99.8642 46.3682 97.9975 49.1949C96.1308 52.0216 93.5708 54.2082 90.3175 55.7549C87.1175 57.2482 83.5442 57.9949 79.5975 57.9949C71.7575 57.9949 65.6242 55.5949 61.1975 50.7949C56.7708 45.9949 54.5575 39.1416 54.5575 30.2349C54.5575 23.8882 55.7575 18.4482 58.1575 13.9149C60.5575 9.38158 63.8908 5.94158 68.1575 3.59491C72.4775 1.24824 77.4642 0.0749111 83.1175 0.0749111C86.1042 0.0749111 88.9575 0.421576 91.6775 1.11491C94.4508 1.75491 96.7975 2.68824 98.7175 3.91491L93.9175 13.4349C91.1442 11.5682 87.6508 10.6349 83.4375 10.6349C78.6908 10.6349 74.9308 12.0216 72.1575 14.7949C69.3842 17.5682 67.8908 21.5949 67.6775 26.8749C70.9842 23.5682 75.5975 21.9149 81.5175 21.9149ZM78.8775 48.3149C81.6508 48.3149 83.8908 47.5682 85.5975 46.0749C87.3575 44.5816 88.2375 42.5549 88.2375 39.9949C88.2375 37.4349 87.3575 35.4082 85.5975 33.9149C83.8908 32.3682 81.5975 31.5949 78.7175 31.5949C75.8908 31.5949 73.5708 32.3949 71.7575 33.9949C69.9442 35.5416 69.0375 37.5416 69.0375 39.9949C69.0375 42.4482 69.9175 44.4482 71.6775 45.9949C73.4375 47.5416 75.8375 48.3149 78.8775 48.3149ZM113.716 42.1549C115.956 42.1549 117.796 42.8749 119.236 44.3149C120.676 45.7016 121.396 47.5416 121.396 49.8349C121.396 50.9016 121.263 51.9682 120.996 53.0349C120.73 54.1016 120.143 55.7016 119.236 57.8349L114.676 69.3549H106.756L110.276 56.6349C108.943 56.1016 107.876 55.2482 107.076 54.0749C106.33 52.8482 105.956 51.4349 105.956 49.8349C105.956 47.5416 106.676 45.7016 108.116 44.3149C109.61 42.8749 111.476 42.1549 113.716 42.1549ZM154.155 23.8349C159.062 24.6349 162.822 26.4749 165.435 29.3549C168.048 32.1816 169.355 35.7016 169.355 39.9149C169.355 43.1682 168.502 46.1816 166.795 48.9549C165.088 51.6749 162.475 53.8616 158.955 55.5149C155.488 57.1682 151.222 57.9949 146.155 57.9949C142.208 57.9949 138.315 57.4882 134.475 56.4749C130.688 55.4082 127.462 53.9149 124.795 51.9949L129.835 42.0749C131.968 43.6749 134.422 44.9282 137.195 45.8349C140.022 46.6882 142.902 47.1149 145.835 47.1149C149.088 47.1149 151.648 46.5016 153.515 45.2749C155.382 43.9949 156.315 42.2082 156.315 39.9149C156.315 35.3282 152.822 33.0349 145.835 33.0349H139.915V24.4749L151.435 11.4349H127.595V1.03491H166.795V9.43491L154.155 23.8349ZM187.518 31.2749C183.411 31.2749 180.051 29.8882 177.438 27.1149C174.878 24.2882 173.598 20.5282 173.598 15.8349C173.598 11.1416 174.878 7.40824 177.438 4.63491C180.051 1.80824 183.411 0.394912 187.518 0.394912C191.624 0.394912 194.958 1.80824 197.518 4.63491C200.078 7.40824 201.358 11.1416 201.358 15.8349C201.358 20.5282 200.078 24.2882 197.518 27.1149C194.958 29.8882 191.624 31.2749 187.518 31.2749ZM220.878 1.03491H230.398L192.158 57.0349H182.638L220.878 1.03491ZM187.518 24.7149C189.331 24.7149 190.744 23.9682 191.758 22.4749C192.824 20.9816 193.358 18.7682 193.358 15.8349C193.358 12.9016 192.824 10.6882 191.758 9.19491C190.744 7.70157 189.331 6.95491 187.518 6.95491C185.758 6.95491 184.344 7.72824 183.278 9.27491C182.211 10.7682 181.678 12.9549 181.678 15.8349C181.678 18.7149 182.211 20.9282 183.278 22.4749C184.344 23.9682 185.758 24.7149 187.518 24.7149ZM225.518 57.6749C222.851 57.6749 220.451 57.0616 218.318 55.8349C216.238 54.5549 214.611 52.7416 213.438 50.3949C212.264 48.0482 211.678 45.3282 211.678 42.2349C211.678 39.1416 212.264 36.4216 213.438 34.0749C214.611 31.7282 216.238 29.9416 218.318 28.7149C220.451 27.4349 222.851 26.7949 225.518 26.7949C229.624 26.7949 232.958 28.2082 235.518 31.0349C238.131 33.8082 239.438 37.5416 239.438 42.2349C239.438 46.9282 238.131 50.6882 235.518 53.5149C232.958 56.2882 229.624 57.6749 225.518 57.6749ZM225.518 51.1149C227.331 51.1149 228.744 50.3682 229.758 48.8749C230.824 47.3282 231.358 45.1149 231.358 42.2349C231.358 39.3549 230.824 37.1682 229.758 35.6749C228.744 34.1282 227.331 33.3549 225.518 33.3549C223.758 33.3549 222.344 34.1016 221.278 35.5949C220.211 37.0882 219.678 39.3016 219.678 42.2349C219.678 45.1682 220.211 47.3816 221.278 48.8749C222.344 50.3682 223.758 51.1149 225.518 51.1149Z" fill="#3A405A"/>
</g>
<defs>
<filter id="filter0_d" x="0.486328" y="0.0749512" width="242.951" height="77.28" filterUnits="userSpaceOnUse" color-interpolation-filters="sRGB">
<feFlood flood-opacity="0" result="BackgroundImageFix"/>
<feColorMatrix in="SourceAlpha" type="matrix" values="0 0 0 0 0 0 0 0 0 0 0 0 0 0 0 0 0 0 127 0"/>
<feOffset dy="4"/>
<feGaussianBlur stdDeviation="2"/>
<feColorMatrix type="matrix" values="0 0 0 0 0 0 0 0 0 0 0 0 0 0 0 0 0 0 0.25 0"/>
<feBlend mode="normal" in2="BackgroundImageFix" result="effect1_dropShadow"/>
<feBlend mode="normal" in="SourceGraphic" in2="effect1_dropShadow" result="shape"/>
</filter>
</defs>
</svg>
