<svg width="259" height="78" viewBox="0 0 259 78" fill="none" xmlns="http://www.w3.org/2000/svg">
<g filter="url(#filter0_d)">
<path d="M29.0872 1.03491V57.0349H16.1272V11.4349H4.92719V1.03491H29.0872ZM60.4153 1.03491V57.0349H47.4553V11.4349H36.2553V1.03491H60.4153ZM89.3434 22.0749C97.2368 22.0749 103.05 23.6482 106.783 26.7949C110.57 29.9416 112.463 34.1549 112.463 39.4349C112.463 42.8482 111.61 45.9682 109.903 48.7949C108.197 51.5682 105.583 53.8082 102.063 55.5149C98.5968 57.1682 94.3034 57.9949 89.1834 57.9949C85.2368 57.9949 81.3434 57.4882 77.5034 56.4749C73.7168 55.4082 70.4901 53.9149 67.8234 51.9949L72.9434 42.0749C75.0768 43.6749 77.5301 44.9282 80.3034 45.8349C83.0768 46.6882 85.9301 47.1149 88.8634 47.1149C92.1168 47.1149 94.6768 46.4749 96.5434 45.1949C98.4101 43.9149 99.3434 42.1282 99.3434 39.8349C99.3434 37.4349 98.3568 35.6216 96.3834 34.3949C94.4634 33.1682 91.1034 32.5549 86.3034 32.5549H71.9834L74.8634 1.03491H109.023V11.4349H85.6634L84.7834 22.0749H89.3434ZM125.162 42.1549C127.402 42.1549 129.242 42.8749 130.682 44.3149C132.122 45.7016 132.842 47.5416 132.842 49.8349C132.842 50.9016 132.708 51.9682 132.442 53.0349C132.175 54.1016 131.588 55.7016 130.682 57.8349L126.122 69.3549H118.202L121.722 56.6349C120.388 56.1016 119.322 55.2482 118.522 54.0749C117.775 52.8482 117.402 51.4349 117.402 49.8349C117.402 47.5416 118.122 45.7016 119.562 44.3149C121.055 42.8749 122.922 42.1549 125.162 42.1549ZM158.339 0.0749111C166.179 0.0749111 172.312 2.47491 176.739 7.27491C181.166 12.0216 183.379 18.8749 183.379 27.8349C183.379 34.1816 182.179 39.6216 179.779 44.1549C177.432 48.6882 174.099 52.1282 169.779 54.4749C165.459 56.8216 160.472 57.9949 154.819 57.9949C151.832 57.9949 148.979 57.6749 146.259 57.0349C143.539 56.3416 141.219 55.3816 139.299 54.1549L144.099 44.6349C146.819 46.5016 150.312 47.4349 154.579 47.4349C159.326 47.4349 163.086 46.0482 165.859 43.2749C168.632 40.4482 170.126 36.3949 170.339 31.1149C166.979 34.4749 162.339 36.1549 156.419 36.1549C152.846 36.1549 149.592 35.4349 146.659 33.9949C143.726 32.5549 141.406 30.5282 139.699 27.9149C137.992 25.2482 137.139 22.1816 137.139 18.7149C137.139 14.9816 138.072 11.7016 139.939 8.87491C141.806 6.04824 144.339 3.88824 147.539 2.39491C150.792 0.848244 154.392 0.0749111 158.339 0.0749111ZM159.299 26.4749C162.126 26.4749 164.419 25.7016 166.179 24.1549C167.992 22.5549 168.899 20.5282 168.899 18.0749C168.899 15.6216 168.019 13.6216 166.259 12.0749C164.552 10.5282 162.179 9.75491 159.139 9.75491C156.366 9.75491 154.099 10.5016 152.339 11.9949C150.632 13.4882 149.779 15.5149 149.779 18.0749C149.779 20.6349 150.632 22.6882 152.339 24.2349C154.099 25.7282 156.419 26.4749 159.299 26.4749ZM202.557 31.2749C198.45 31.2749 195.09 29.8882 192.477 27.1149C189.917 24.2882 188.637 20.5282 188.637 15.8349C188.637 11.1416 189.917 7.40824 192.477 4.63491C195.09 1.80824 198.45 0.394912 202.557 0.394912C206.663 0.394912 209.997 1.80824 212.557 4.63491C215.117 7.40824 216.397 11.1416 216.397 15.8349C216.397 20.5282 215.117 24.2882 212.557 27.1149C209.997 29.8882 206.663 31.2749 202.557 31.2749ZM235.917 1.03491H245.437L207.197 57.0349H197.677L235.917 1.03491ZM202.557 24.7149C204.37 24.7149 205.783 23.9682 206.797 22.4749C207.863 20.9816 208.397 18.7682 208.397 15.8349C208.397 12.9016 207.863 10.6882 206.797 9.19491C205.783 7.70157 204.37 6.95491 202.557 6.95491C200.797 6.95491 199.383 7.72824 198.317 9.27491C197.25 10.7682 196.717 12.9549 196.717 15.8349C196.717 18.7149 197.25 20.9282 198.317 22.4749C199.383 23.9682 200.797 24.7149 202.557 24.7149ZM240.557 57.6749C237.89 57.6749 235.49 57.0616 233.357 55.8349C231.277 54.5549 229.65 52.7416 228.477 50.3949C227.303 48.0482 226.717 45.3282 226.717 42.2349C226.717 39.1416 227.303 36.4216 228.477 34.0749C229.65 31.7282 231.277 29.9416 233.357 28.7149C235.49 27.4349 237.89 26.7949 240.557 26.7949C244.663 26.7949 247.997 28.2082 250.557 31.0349C253.17 33.8082 254.477 37.5416 254.477 42.2349C254.477 46.9282 253.17 50.6882 250.557 53.5149C247.997 56.2882 244.663 57.6749 240.557 57.6749ZM240.557 51.1149C242.37 51.1149 243.783 50.3682 244.797 48.8749C245.863 47.3282 246.397 45.1149 246.397 42.2349C246.397 39.3549 245.863 37.1682 244.797 35.6749C243.783 34.1282 242.37 33.3549 240.557 33.3549C238.797 33.3549 237.383 34.1016 236.317 35.5949C235.25 37.0882 234.717 39.3016 234.717 42.2349C234.717 45.1682 235.25 47.3816 236.317 48.8749C237.383 50.3682 238.797 51.1149 240.557 51.1149Z" fill="#3A405A"/>
</g>
<defs>
<filter id="filter0_d" x="0.927246" y="0.0749512" width="257.549" height="77.28" filterUnits="userSpaceOnUse" color-interpolation-filters="sRGB">
<feFlood flood-opacity="0" result="BackgroundImageFix"/>
<feColorMatrix in="SourceAlpha" type="matrix" values="0 0 0 0 0 0 0 0 0 0 0 0 0 0 0 0 0 0 127 0"/>
<feOffset dy="4"/>
<feGaussianBlur stdDeviation="2"/>
<feColorMatrix type="matrix" values="0 0 0 0 0 0 0 0 0 0 0 0 0 0 0 0 0 0 0.25 0"/>
<feBlend mode="normal" in2="BackgroundImageFix" result="effect1_dropShadow"/>
<feBlend mode="normal" in="SourceGraphic" in2="effect1_dropShadow" result="shape"/>
</filter>
</defs>
</svg>
