<svg width="45" height="70" viewBox="0 0 45 70" fill="none" xmlns="http://www.w3.org/2000/svg">
<path d="M42.228 29.0734C40.7895 27.55 38.8353 26.778 36.4128 26.778H35.8266V4.95137C35.8023 3.63073 35.1986 2.37154 34.1459 1.44531C33.0931 0.519076 31.6755 0 30.1988 0C28.7221 0 27.3046 0.519076 26.2518 1.44531C25.199 2.37154 24.5954 3.63073 24.571 4.95137V15.0448C23.7172 14.6525 22.7652 14.4622 21.8059 14.492C20.8465 14.5219 19.9117 14.7709 19.0903 15.2153C18.269 15.6597 17.5885 16.2848 17.1137 17.031C16.6389 17.7772 16.3855 18.6197 16.3776 19.4783C15.5839 19.1113 14.7032 18.9202 13.8097 18.9212C12.4176 18.9226 11.0754 19.3848 10.0417 20.2189C9.00806 21.0529 8.3562 22.1997 8.21177 23.4381C7.35489 23.0405 6.39797 22.8469 5.43317 22.876C4.46837 22.905 3.52819 23.1558 2.70316 23.6041C1.87814 24.0524 1.19606 24.6832 0.722619 25.4356C0.249176 26.1881 0.000314733 27.0369 0 27.9004V46.2749C0 46.6472 0.0658031 55.4457 5.83822 61.6053C6.84407 62.6763 7.39711 64.0295 7.40069 65.4283V68.6312C7.40069 68.9942 7.56192 69.3424 7.84892 69.5991C8.13591 69.8558 8.52516 70 8.93103 70C9.33689 70 9.72614 69.8558 10.0131 69.5991C10.3001 69.3424 10.4614 68.9942 10.4614 68.6312V65.4283C10.4575 63.3857 9.65092 61.4094 8.18269 59.845C3.13259 54.4671 3.06067 46.3543 3.06067 46.2735V40.5397C3.96368 40.9548 4.97563 41.1433 5.98885 41.085C7.00206 41.0266 7.97866 40.7237 8.81472 40.2085C9.19664 40.8774 9.74129 41.4614 10.4087 41.9174C11.076 42.3733 11.8492 42.6898 12.6712 42.8434C13.4933 42.997 14.3434 42.9839 15.159 42.8051C15.9747 42.6262 16.7352 42.2862 17.3846 41.8099C18.0018 42.6146 18.8678 43.241 19.8766 43.6124C20.8855 43.9839 21.9935 44.0843 23.0652 43.9014C18.9807 46.6609 18.0151 50.8398 17.96 51.0711C17.8817 51.4272 17.9648 51.7966 18.191 52.0979C18.4171 52.3993 18.7678 52.6079 19.1659 52.6781C19.2637 52.6955 19.3631 52.7042 19.4628 52.7041C19.8173 52.7036 20.1606 52.5931 20.4342 52.3914C20.7077 52.1897 20.8944 51.9093 20.9625 51.5981C20.9747 51.5406 22.2985 45.8314 28.7458 44.5229C28.9447 44.4857 29.1334 44.4135 29.3009 44.3105C29.4683 44.2074 29.6111 44.0755 29.7209 43.9226C29.8307 43.7696 29.9054 43.5986 29.9405 43.4195C29.9756 43.2405 29.9705 43.057 29.9255 42.8797C29.8805 42.7024 29.7964 42.535 29.6783 42.3871C29.5601 42.2392 29.4102 42.1138 29.2372 42.0183C29.0643 41.9228 28.8718 41.859 28.671 41.8308C28.4703 41.8025 28.2652 41.8103 28.0678 41.8537C27.4132 41.9856 26.7702 42.1604 26.1442 42.3766C27.1103 41.4467 27.6467 40.224 27.6455 38.9547V37.3231L32.7491 38.299L32.0008 40.8668C31.9418 41.0432 31.9231 41.2285 31.946 41.4115C31.9689 41.5945 32.0328 41.7714 32.1339 41.9318C32.235 42.0922 32.3713 42.2327 32.5345 42.3448C32.6978 42.457 32.8847 42.5386 33.084 42.5846C33.2833 42.6307 33.491 42.6403 33.6945 42.6129C33.8981 42.5856 34.0934 42.5217 34.2687 42.4252C34.4441 42.3287 34.5958 42.2016 34.715 42.0514C34.8341 41.9013 34.9181 41.7311 34.962 41.5512L36.096 37.6625C36.096 37.6352 36.1082 37.6078 36.1143 37.5804C36.1205 37.553 36.1235 37.553 36.1266 37.5393C36.2105 37.1843 36.1333 36.814 35.912 36.5099C35.6908 36.2057 35.3436 35.9926 34.9467 35.9173L26.4243 34.2885H26.4105L25.5657 34.127C23.5671 33.7451 22.1148 32.0738 22.1148 30.1575C22.1048 29.9958 22.1665 29.837 22.2866 29.7158C22.4066 29.5946 22.5754 29.5206 22.7561 29.5101H36.4219C37.9155 29.5101 39.051 29.9426 39.8927 30.835C41.2563 32.2791 41.9495 34.951 41.9526 38.774C41.9526 41.8962 41.5118 45.6822 40.5615 50.6906C39.6923 55.2637 36.35 59.3276 34.4401 61.3438C33.3681 62.4744 32.7802 63.9089 32.7813 65.3913V68.6312C32.7813 68.9942 32.9425 69.3424 33.2295 69.5991C33.5165 69.8558 33.9057 70 34.3116 70C34.7175 70 35.1067 69.8558 35.3937 69.5991C35.6807 69.3424 35.8419 68.9942 35.8419 68.6312V65.3899C35.8407 64.5569 36.1704 63.7507 36.7724 63.115C38.8919 60.8853 42.5876 56.3669 43.5854 51.1464C45.8335 39.2558 45.4172 32.4461 42.228 29.0734ZM27.6378 4.95137C27.6542 4.35211 27.9318 3.78231 28.4115 3.36364C28.8911 2.94497 29.5348 2.71062 30.205 2.71062C30.8751 2.71062 31.5188 2.94497 31.9984 3.36364C32.4781 3.78231 32.7557 4.35211 32.7721 4.95137V26.7711H27.6378V4.95137ZM5.62091 38.3579C4.94158 38.3557 4.29086 38.113 3.81107 37.6828C3.33128 37.2527 3.06147 36.67 3.06067 36.0624V27.9004C3.05231 27.5941 3.11252 27.2895 3.23778 27.0044C3.36303 26.7192 3.55079 26.4594 3.78999 26.2402C4.0292 26.0209 4.31503 25.8467 4.63065 25.7277C4.94627 25.6088 5.2853 25.5475 5.6278 25.5475C5.9703 25.5475 6.30933 25.6088 6.62495 25.7277C6.94057 25.8467 7.2264 26.0209 7.46561 26.2402C7.70482 26.4594 7.89257 26.7192 8.01783 27.0044C8.14308 27.2895 8.2033 27.5941 8.19494 27.9004V36.0624C8.19453 36.3643 8.12763 36.6632 7.99803 36.942C7.86844 37.2208 7.6787 37.474 7.43966 37.6872C7.20062 37.9003 6.91696 38.0693 6.6049 38.1844C6.29283 38.2995 5.95846 38.3584 5.62091 38.3579ZM13.8158 40.2112C13.1352 40.2105 12.4827 39.9682 12.0015 39.5376C11.5204 39.107 11.2499 38.5232 11.2495 37.9144V23.9528C11.2495 23.344 11.5199 22.7602 12.0012 22.3297C12.4824 21.8992 13.1352 21.6574 13.8158 21.6574C14.4965 21.6574 15.1493 21.8992 15.6305 22.3297C16.1118 22.7602 16.3822 23.344 16.3822 23.9528V37.9144C16.3818 38.5232 16.1113 39.107 15.6302 39.5376C15.149 39.9682 14.4965 40.2105 13.8158 40.2112ZM24.5772 36.729V38.9574C24.5608 39.5567 24.2831 40.1265 23.8035 40.5451C23.3238 40.9638 22.6802 41.1981 22.01 41.1981C21.3398 41.1981 20.6962 40.9638 20.2165 40.5451C19.7369 40.1265 19.4592 39.5567 19.4429 38.9574V32.3174C19.823 33.3757 20.4911 34.3329 21.3873 35.103C22.2835 35.873 23.3797 36.4318 24.5772 36.729ZM19.4429 28.6532V19.5221C19.4592 18.9228 19.7369 18.353 20.2165 17.9343C20.6962 17.5157 21.3398 17.2813 22.01 17.2813C22.6802 17.2813 23.3238 17.5157 23.8035 17.9343C24.2831 18.353 24.5608 18.9228 24.5772 19.5221V26.7766H22.7561C22.0631 26.7796 21.3851 26.9568 20.7993 27.2879C20.2135 27.619 19.7435 28.0906 19.4429 28.6491V28.6532Z" fill="#3A405A"/>
</svg>
