<svg width="45" height="70" viewBox="0 0 45 70" fill="none" xmlns="http://www.w3.org/2000/svg">
<path d="M42.2247 29.9382C40.782 28.4398 38.8216 27.679 36.3996 27.679H35.5979L42.7425 6.45688C43.1545 5.17156 42.9729 3.79554 42.2369 2.62688C41.5009 1.45821 40.2698 0.590999 38.8102 0.213079C37.3507 -0.16484 35.7802 -0.0230378 34.4389 0.607772C33.0976 1.23858 32.0936 2.30761 31.6443 3.58329L26.0843 20.0859L20.5197 3.57782C20.0704 2.30213 19.0664 1.23311 17.7251 0.602298C16.3838 -0.0285112 14.8133 -0.170314 13.3538 0.207606C11.8942 0.585525 10.6631 1.45274 9.92707 2.6214C9.19106 3.79007 9.00944 5.16608 9.42154 6.4514L15.0501 23.1606C14.3182 22.9614 13.5483 22.892 12.7855 22.9567C12.0227 23.0213 11.2822 23.2186 10.6072 23.5371C9.93228 23.8555 9.33637 24.2888 8.85431 24.8115C8.37225 25.3342 8.01368 25.9359 7.79955 26.5815C6.91346 26.294 5.96064 26.201 5.0242 26.3108C4.08776 26.4205 3.19614 26.7296 2.42711 27.2111C1.65808 27.6926 1.035 28.3318 0.61221 29.0731C0.189422 29.8144 -0.0202301 30.6352 0.00153753 31.4639V46.817C0.00153753 47.1824 0.0686003 55.8141 5.83913 61.85C6.84167 62.8927 7.39381 64.2119 7.39873 65.5761V68.6316C7.39873 68.9945 7.56305 69.3426 7.85553 69.5992C8.14801 69.8558 8.5447 70 8.95834 70C9.37197 70 9.76866 69.8558 10.0611 69.5992C10.3536 69.3426 10.5179 68.9945 10.5179 68.6316V65.5692C10.5146 63.5623 9.70695 61.6204 8.23624 60.0834C3.20808 54.8234 3.12854 46.8882 3.12854 46.8102V37.9965L6.74526 44.343C7.19248 45.1278 7.86395 45.7974 8.69413 46.2866C9.52431 46.7758 10.4848 47.0678 11.482 47.1341C12.4792 47.2004 13.4789 47.0387 14.3836 46.6649C15.2883 46.2911 16.0671 45.7179 16.6441 45.0012C17.4343 45.9902 18.6014 46.6988 19.9348 46.999C18.9647 48.2807 18.2638 49.7043 17.8652 51.2027C17.8258 51.379 17.8263 51.5605 17.8668 51.7367C17.9073 51.9129 17.9869 52.0804 18.1012 52.2296C18.2154 52.3787 18.3621 52.5067 18.5328 52.6062C18.7034 52.7056 18.8947 52.7746 19.0958 52.8091C19.1954 52.8265 19.2967 52.8352 19.3983 52.8351C19.7594 52.8348 20.1091 52.7245 20.3879 52.5231C20.6666 52.3217 20.857 52.0417 20.9267 51.7309C20.9392 51.6734 22.2867 45.9727 28.848 44.6659C29.0507 44.6288 29.243 44.5566 29.4136 44.4536C29.5843 44.3506 29.7298 44.2187 29.8417 44.0658C29.9536 43.9129 30.0297 43.742 30.0655 43.563C30.1013 43.384 30.0961 43.2005 30.0502 43.0233C30.0044 42.8461 29.9187 42.6786 29.7983 42.5308C29.6778 42.3829 29.525 42.2576 29.3488 42.1621C29.1725 42.0666 28.9764 42.0029 28.7718 41.9747C28.5672 41.9464 28.3582 41.9542 28.157 41.9976C27.8171 42.0647 27.488 42.1427 27.1698 42.2275C27.1941 41.3914 26.9819 40.563 26.5522 39.8164L25.3045 37.6339L32.6939 39.0187L31.9547 41.5064C31.8945 41.6827 31.8755 41.8679 31.8988 42.0508C31.9221 42.2338 31.9873 42.4107 32.0903 42.571C32.1934 42.7314 32.3323 42.8718 32.4986 42.9839C32.665 43.0961 32.8555 43.1776 33.0586 43.2237C33.2617 43.2697 33.4733 43.2793 33.6808 43.252C33.8883 43.2246 34.0873 43.1607 34.266 43.0643C34.4447 42.9678 34.5994 42.8407 34.7208 42.6906C34.8422 42.5405 34.9278 42.3704 34.9725 42.1906L36.1048 38.3906C36.1126 38.3632 36.1173 38.3372 36.1235 38.3099C36.1297 38.2825 36.1329 38.2825 36.136 38.2688C36.1788 38.0931 36.1817 37.9116 36.1446 37.7349C36.1075 37.5582 36.0311 37.3895 35.9198 37.2387C35.8084 37.0879 35.6642 36.9578 35.4956 36.8558C35.3269 36.7539 35.137 36.6821 34.9366 36.6445L25.5697 34.8848C23.589 34.514 22.1495 32.8897 22.1495 31.0219C22.1396 30.871 22.1979 30.7227 22.3118 30.6093C22.4256 30.4958 22.5858 30.4263 22.7577 30.4157H36.3996C37.8812 30.4157 39.0072 30.8372 39.84 31.7034C40.7508 32.6489 43.5207 35.528 40.5013 51.1343C39.6357 55.6075 36.3013 59.5826 34.3908 61.5544C33.3162 62.667 32.7265 64.078 32.7267 65.5364V68.6316C32.7267 68.9945 32.891 69.3426 33.1835 69.5992C33.476 69.8558 33.8727 70 34.2863 70C34.6999 70 35.0966 69.8558 35.3891 69.5992C35.6816 69.3426 35.8459 68.9945 35.8459 68.6316V65.5309C35.8449 64.7221 36.1716 63.9393 36.7676 63.3223C38.8856 61.1329 42.5865 56.7049 43.5768 51.5858C45.8336 39.93 45.4234 33.2537 42.2247 29.9382ZM13.1053 44.1692C12.4729 44.4468 11.7407 44.4925 11.0697 44.2965C10.3988 44.1004 9.84411 43.6786 9.52759 43.1238L3.40147 32.3821C3.23694 32.1066 3.13665 31.8052 3.10644 31.4953C3.07624 31.1854 3.11674 30.8734 3.22557 30.5775C3.3344 30.2815 3.50938 30.0075 3.74028 29.7716C3.97118 29.5356 4.25337 29.3424 4.57036 29.2033C4.88734 29.0641 5.23276 28.9818 5.58642 28.9612C5.94008 28.9405 6.29489 28.9819 6.63011 29.0829C6.96533 29.184 7.27423 29.3426 7.53876 29.5496C7.80328 29.7566 8.01813 30.0078 8.17074 30.2885L14.2969 41.0288C14.6108 41.5834 14.6617 42.2246 14.4385 42.812C14.2152 43.3995 13.7359 43.8855 13.1053 44.1638V44.1692ZM18.9897 43.1416L15.4026 36.8471L10.9562 29.0569C10.7189 28.6432 10.6271 28.177 10.6924 27.7174C10.7577 27.2578 10.9771 26.8256 11.3229 26.4756C11.6686 26.1257 12.125 25.8737 12.6343 25.7517C13.1435 25.6298 13.6826 25.6433 14.183 25.7906C14.5159 25.8865 14.8238 26.0396 15.0886 26.2409C15.3534 26.4423 15.5699 26.6878 15.7255 26.9633L23.7605 41.0411C24.0772 41.5962 24.1295 42.2389 23.9061 42.8279C23.6826 43.4168 23.2016 43.9037 22.569 44.1815C21.9363 44.4594 21.2038 44.5053 20.5326 44.3092C19.8613 44.1132 19.3063 43.6912 18.9897 43.1361V43.1416ZM20.1656 28.6286L20.1126 28.5356L12.4129 5.68648C12.2122 5.0913 12.2893 4.45058 12.6271 3.90526C12.965 3.35994 13.5358 2.9547 14.2142 2.77869C14.8926 2.60268 15.6228 2.67031 16.2443 2.9667C16.8659 3.2631 17.3277 3.76398 17.5284 4.35916L24.5871 25.3007C24.6825 25.5839 24.8797 25.8324 25.1492 26.0091C25.4188 26.1858 25.7463 26.2813 26.0828 26.2813C26.4193 26.2813 26.7468 26.1858 27.0163 26.0091C27.2859 25.8324 27.4831 25.5839 27.5784 25.3007L34.6356 4.35369C34.8362 3.75851 35.2981 3.25762 35.9196 2.96123C36.5412 2.66483 37.2714 2.5972 37.9498 2.77322C38.6281 2.94923 39.199 3.35447 39.5368 3.89979C39.8747 4.4451 39.9517 5.08583 39.7511 5.68101L32.3383 27.679H22.7577C21.7854 27.6805 20.8533 28.02 20.1656 28.6231V28.6286Z" fill="#3A405A"/>
</svg>
