<svg width="45" height="70" viewBox="0 0 45 70" fill="none" xmlns="http://www.w3.org/2000/svg">
<path d="M42.2274 29.7673C40.786 28.2652 38.8284 27.5019 36.409 27.5019H35.4403L40.2791 9.81822C40.457 9.16825 40.4879 8.49379 40.3699 7.83332C40.252 7.17286 39.9875 6.53933 39.5916 5.96892C39.1958 5.3985 38.6763 4.90236 38.0628 4.50884C37.4493 4.11531 36.7538 3.83209 36.0161 3.67536C35.2784 3.51863 34.5128 3.49146 33.7632 3.59539C33.0136 3.69932 32.2945 3.93232 31.6471 4.28109C30.9996 4.62985 30.4365 5.08756 29.9898 5.62807C29.5432 6.16857 29.2217 6.7813 29.0438 7.43126L26.5546 16.5271V5.3379C26.5674 4.641 26.4226 3.94884 26.1287 3.30172C25.8349 2.65461 25.3978 2.0655 24.8429 1.56869C24.288 1.07189 23.6265 0.677338 22.8968 0.408019C22.1672 0.1387 21.384 0 20.5929 0C19.8018 0 19.0186 0.1387 18.289 0.408019C17.5593 0.677338 16.8978 1.07189 16.3429 1.56869C15.788 2.0655 15.3509 2.65461 15.0571 3.30172C14.7632 3.94884 14.6184 4.641 14.6311 5.3379V16.5271L12.142 7.43126C11.9641 6.7813 11.6426 6.16857 11.196 5.62807C10.7493 5.08756 10.1862 4.62985 9.53874 4.28109C8.23118 3.57672 6.65959 3.35883 5.16969 3.67536C3.67979 3.99189 2.39363 4.81691 1.59416 5.96892C0.794683 7.12092 0.547378 8.50556 0.906647 9.81822L5.35645 26.079C4.6042 26.1292 3.87029 26.3082 3.19587 26.6061C2.2152 27.04 1.39444 27.7103 0.828979 28.5389C0.263517 29.3675 -0.0234267 30.3205 0.00149588 31.2871V46.7177C0.00149588 47.0836 0.0681429 55.752 5.83848 61.8123C6.83857 62.8637 7.3872 64.1915 7.38839 65.5634V68.6345C7.38839 68.9966 7.55169 69.344 7.84235 69.6C8.13302 69.8561 8.52724 70 8.93831 70C9.34937 70 9.7436 69.8561 10.0343 69.6C10.3249 69.344 10.4882 68.9966 10.4882 68.6345V65.5579C10.4852 63.5438 9.67814 61.5947 8.2083 60.0521C3.17417 54.7647 3.09358 46.79 3.09358 46.7122V37.8185L6.73433 44.2283C7.07306 44.8264 7.54235 45.3599 8.11534 45.798C8.68834 46.2362 9.35378 46.5705 10.0736 46.7818C10.7934 46.9931 11.5535 47.0773 12.3102 47.0295C13.067 46.9817 13.8057 46.8029 14.4839 46.5033C15.8521 45.8978 16.8921 44.8392 17.3761 43.5595C17.8601 42.2797 17.7486 40.8831 17.0661 39.6756L10.9361 28.8879C10.444 28.0162 9.67653 27.2883 8.72597 26.7918L3.91968 9.17778C3.83725 8.87651 3.82297 8.5639 3.87767 8.25777C3.93237 7.95164 4.05497 7.65801 4.23847 7.39363C4.42197 7.12925 4.66278 6.8993 4.94715 6.71691C5.23152 6.53452 5.55388 6.40327 5.89582 6.33064C6.23777 6.25802 6.5926 6.24544 6.94006 6.29363C7.28752 6.34182 7.6208 6.44984 7.92088 6.61151C8.22096 6.77318 8.48196 6.98534 8.68897 7.23588C8.89599 7.48642 9.04496 7.77043 9.1274 8.0717L14.6745 28.3376C14.7637 28.6624 14.9849 28.9472 15.2964 29.1379C15.6078 29.3287 15.9878 29.4122 16.3645 29.3726C16.7411 29.3331 17.0882 29.1732 17.3401 28.9233C17.5919 28.6734 17.731 28.3509 17.731 28.0167V5.3379C17.7221 5.00184 17.7896 4.66761 17.9294 4.35485C18.0692 4.04209 18.2786 3.75711 18.5453 3.51666C18.8119 3.27622 19.1304 3.08516 19.482 2.95472C19.8337 2.82427 20.2114 2.75708 20.5929 2.75708C20.9744 2.75708 21.3521 2.82427 21.7038 2.95472C22.0554 3.08516 22.3739 3.27622 22.6405 3.51666C22.9072 3.75711 23.1166 4.04209 23.2564 4.35485C23.3962 4.66761 23.4637 5.00184 23.4548 5.3379V27.5019H22.7605C20.7099 27.5019 19.0407 29.004 19.0407 30.8502C19.0407 34.0114 21.5205 36.7697 24.9226 37.4115L32.7125 38.8768L31.9701 41.3853C31.9187 41.5588 31.9066 41.7396 31.9345 41.9173C31.9624 42.095 32.0298 42.2662 32.1328 42.4209C32.2357 42.5757 32.3723 42.7111 32.5347 42.8193C32.697 42.9276 32.882 43.0066 33.079 43.0519C33.276 43.0972 33.4813 43.1078 33.6829 43.0832C33.8846 43.0586 34.0789 42.9993 34.2545 42.9085C34.4302 42.8178 34.5838 42.6975 34.7067 42.5544C34.8296 42.4114 34.9193 42.2484 34.9707 42.0748L36.1021 38.2513C36.1099 38.224 36.1145 38.1967 36.1207 38.1694C36.1269 38.1421 36.13 38.1421 36.1331 38.1285C36.2186 37.7745 36.1411 37.405 35.9176 37.1014C35.6941 36.7977 35.3429 36.5846 34.9412 36.5089L25.5704 34.7447C23.5835 34.3705 22.1405 32.7346 22.1405 30.8543C22.1307 30.7002 22.1903 30.5489 22.3064 30.4333C22.4225 30.3178 22.5857 30.2472 22.7605 30.237H36.409C37.8938 30.237 39.0237 30.6604 39.8591 31.5329C41.2184 32.9517 41.9097 35.5763 41.9128 39.3329C41.9128 42.4039 41.4726 46.1291 40.5178 51.0546C39.6499 55.5527 36.3129 59.5468 34.4019 61.5282C33.3274 62.6443 32.738 64.0603 32.7388 65.5238V68.6345C32.7388 68.9966 32.9021 69.344 33.1928 69.6C33.4834 69.8561 33.8777 70 34.2887 70C34.6998 70 35.094 69.8561 35.3847 69.6C35.6753 69.344 35.8386 68.9966 35.8386 68.6345V65.5197C35.8393 64.7041 36.1689 63.9152 36.7686 63.2939C38.8873 61.0995 42.5885 56.6492 43.5789 51.5079C45.8356 39.8012 45.4187 33.0965 42.2274 29.7673ZM14.3057 40.8937C14.4631 41.1708 14.557 41.4725 14.5821 41.7817C14.6072 42.0908 14.5629 42.4013 14.4518 42.6953C14.3407 42.9894 14.1649 43.2613 13.9345 43.4955C13.7042 43.7297 13.4237 43.9216 13.1091 44.0603C12.7946 44.199 12.4521 44.2818 12.1012 44.3039C11.7503 44.326 11.398 44.287 11.0642 44.1891C10.7304 44.0912 10.4218 43.9363 10.156 43.7334C9.89017 43.5304 9.67231 43.2833 9.51488 43.0061L3.38651 32.2184C3.06855 31.6587 3.01599 31.0106 3.24038 30.4168C3.46478 29.8229 3.94775 29.3319 4.58305 29.0518C5.21834 28.7716 5.95393 28.7253 6.62798 28.923C7.30203 29.1207 7.85934 29.5462 8.1773 30.1059L14.3057 40.8937ZM32.0568 8.0717C32.2233 7.46327 32.6573 6.93802 33.2634 6.61151C33.8694 6.285 34.5978 6.18397 35.2884 6.33064C35.979 6.47732 36.5752 6.85968 36.9458 7.39363C37.3164 7.92757 37.431 8.56935 37.2646 9.17778L32.2506 27.5019H26.7406L32.0568 8.0717Z" fill="#3A405A"/>
</svg>
