<svg width="178" height="138" viewBox="0 0 178 138" fill="none" xmlns="http://www.w3.org/2000/svg">
<path d="M170.441 124.602H154.191V107.184H158.348C162.505 107.184 165.906 104.17 166.284 100.82V76.7036C166.284 76.3686 166.662 76.0338 166.662 75.6988C168.93 68.9998 171.953 60.961 171.197 52.5871C170.442 45.5532 167.418 39.8591 164.773 34.1647C162.883 30.8151 161.372 27.1307 160.238 23.7811C158.726 18.7572 158.726 12.728 158.726 7.03366V6.69892C158.726 3.01456 155.325 0 151.168 0H103.172C101.283 0 99.3927 0.669798 97.8812 2.00971C96.3698 3.34962 95.9917 5.35932 95.9917 7.03398C96.3694 12.393 96.7475 17.7523 96.3694 22.7766C96.3694 25.7911 95.9914 29.4755 94.8576 32.4901C93.3458 35.8397 90.7006 39.189 86.5433 42.5386C79.7407 47.5629 71.8044 51.2472 63.1124 54.9319C54.4204 58.6163 45.728 62.6357 37.7917 68.33C34.3904 70.6748 29.8554 74.6942 27.2098 80.7233C24.9423 86.4174 24.9423 94.4562 30.2331 99.8156C35.5238 105.175 43.0825 105.51 47.2394 105.51L53.2863 105.845V124.602H33.257C32.5013 124.602 32.1233 124.602 31.3675 124.937C22.2975 123.932 15.1169 115.223 15.1169 104.84C15.1169 101.155 11.7156 98.1409 7.55862 98.1409C3.40163 98.1409 0 101.155 0 104.84C0 122.927 15.1169 138 33.257 138H170.064C174.221 138 178 134.985 178 131.301C178 127.616 174.599 124.602 170.441 124.602ZM139.074 124.602H68.4032V106.179L92.9678 107.184C94.1016 107.184 101.282 107.519 103.55 107.184C107.329 106.514 112.998 104.17 117.91 101.825C118.666 104.84 121.69 107.184 125.469 107.184H139.074V124.602H139.074ZM152.301 73.0193C151.167 74.6939 150.789 76.3689 151.167 78.0435V94.1212H133.027V92.1115C133.783 90.4368 133.405 88.4271 132.272 86.7522L131.894 86.4171C130.76 84.4074 128.114 83.0675 125.469 83.0675C123.202 83.0675 121.312 84.0723 119.8 85.4122C119.045 86.082 117.911 87.0869 116.777 87.422C110.73 90.4365 103.55 93.4511 100.526 94.1209C98.6369 94.4559 96.3694 94.4559 93.7239 94.4559L47.9955 93.1163C45.35 92.7816 42.3267 92.7816 41.571 91.7764C40.4372 91.1066 40.0592 88.4268 41.193 86.0824C42.3267 83.7379 44.2162 81.3932 47.6175 79.0484C54.042 74.0241 61.9783 70.6745 69.9146 67.3252C78.9847 63.6408 88.4328 59.2864 96.7468 52.9222C102.794 47.8979 106.951 42.8737 109.218 37.1796C110.73 32.4904 111.108 27.8008 111.486 23.7814V13.7329H144.365C144.743 18.0874 145.12 22.7766 146.254 27.4658C147.766 31.8203 149.655 35.8397 151.545 39.8591C153.812 44.5483 156.08 49.2378 156.458 53.927C157.214 59.9562 154.568 66.3203 152.679 72.0144C152.679 72.3491 152.301 72.6842 152.301 73.0193Z" fill="#E8CFBB"/>
</svg>
