<svg width="176" height="145" viewBox="0 0 176 145" fill="none" xmlns="http://www.w3.org/2000/svg">
<path d="M172.56 88.883C169.594 81.7409 169.479 76.6857 170.238 73.7496C170.997 70.8298 172.666 69.8915 172.666 69.8915C172.666 69.8915 172.551 68.5812 171.121 68.5812C169.726 68.5812 165.639 68.9613 165.639 68.9613C165.639 68.9613 168.817 63.3076 169.347 54.3942C169.859 45.4808 169.082 40.2072 169.082 39.0263C169.082 37.8454 168.579 36.6726 167.034 35.4998C165.498 34.327 163.971 31.9895 164.73 31.6255C165.489 31.2777 166.513 31.8762 166.778 31.1644C166.884 30.8814 166.822 30.4527 166.778 30.121C166.734 29.5872 166.646 29.1747 166.646 29.1747C166.831 29.0453 167.396 29.1262 167.405 28.7784C166.963 28.0828 166.257 27.5166 166.257 27.5166C166.257 27.5166 166.372 26.5864 165.992 25.8908C165.63 25.1791 164.086 24.0143 162.426 24.3621C160.758 24.7099 159.319 24.6291 159.213 26.8614C159.133 28.2203 160.131 28.2365 159.99 28.9482C159.848 29.66 159.91 30.574 159.478 31.0836C158.948 31.6336 156.017 28.5843 153.961 27.9048C151.93 27.1931 150.253 27.1931 150.253 27.1931L147.826 29.0534C147.826 29.0534 139.757 26.8291 135.406 26.7158C131.054 26.5864 129.897 27.1931 130.665 28.8188C131.433 30.4608 132.996 32.1027 132.078 32.8306C131.186 33.5101 130.286 34.4564 131.186 35.0226C132.078 35.6373 133.225 35.9851 133.225 35.9851C133.225 35.9851 129.271 40.6764 137.074 40.1991C144.886 39.7219 146.811 37.716 146.811 37.716C146.811 37.716 148.85 37.9668 149.503 38.4278C150.121 38.8888 151.304 39.7219 151.674 39.8352C152.072 39.9808 152.848 41.2425 155.779 41.3558C158.719 41.4852 159.495 41.1374 160.007 41.9543C160.537 42.747 162.709 44.6558 162.444 46.0632C162.179 47.4706 159.451 48.3198 158.286 50.1559C155.647 54.3133 157.059 59.4737 150.509 65.7826C149 67.2223 146.819 69.5275 145.16 71.6467C143.491 73.7496 142.856 75.9739 142.856 75.9739C142.856 75.9739 145.16 77.9799 148.47 79.6218C151.807 81.2637 153.731 82.9219 153.731 82.9219L153.475 84.8954C153.475 84.8954 159.504 86.416 157.968 88.7697C156.415 91.1234 151.824 91.1234 151.824 91.1234L151.957 94.286L156.821 94.1727C156.821 94.1727 156.688 100.158 139.537 102.722C126.004 104.777 101.818 105.278 89.7417 105.391L90.4302 65.8635L90.492 63.8899C90.492 63.8899 93.9523 62.3693 92.6812 60.3634C91.7367 58.9237 90.9246 57.9612 90.5626 57.5487L91.3748 10.1913L92.8489 9.46338L90.5273 1.14046L88.2057 9.41485L89.9889 10.2803L89.5298 37.627L89.0443 57.217C89.0443 57.217 88.5412 58.1472 87.376 58.6406C86.2549 59.1016 85.7341 58.5031 85.7341 58.5031C85.7341 58.5031 84.8514 55.7045 81.7441 53.2457C78.681 50.7464 76.7655 50.1883 76.7655 50.1883L77.0215 48.6676C77.0215 48.6676 78.8399 49.5978 79.3254 49.0154C79.8374 48.425 79.7491 47.6 79.3607 46.7911C78.9988 45.9742 79.0606 45.3757 78.9458 45.0279C78.8399 44.6639 79.8374 44.8904 79.8374 44.4213C79.8374 43.9602 78.3015 42.3345 78.3015 42.3345C78.3015 42.3345 78.0631 40.6925 77.5158 39.8513C76.9862 39.0021 76.2623 38.8079 73.8083 39.3822C71.3896 39.9888 70.6128 40.9352 70.8865 42.5609C71.1336 44.1948 71.6368 44.8904 71.1336 45.2625C70.6128 45.6103 69.5889 46.3058 70.2333 46.8963C70.8865 47.4867 71.8928 47.964 71.8928 47.964L71.522 49.9456L68.3177 50.5361C68.3177 50.5361 69.0945 48.6757 68.1765 48.1823C67.2849 47.7132 66.8082 47.3492 66.8082 47.3492L66.8436 8.92955L68.3001 8.31483L65.9873 0L63.6745 8.2663L65.1575 8.99425L65.0869 47.7456C65.0869 47.7456 64.0894 48.6596 64.4955 49.5978C64.6897 50.1155 64.9457 50.6412 65.1222 51.1265V53.0192C64.6455 54.1435 63.7098 55.8178 63.7098 55.8178C63.7098 55.8178 62.3063 51.4824 60.6379 50.2934C58.9696 49.1449 56.7892 48.6757 56.7892 48.6757V46.4272C56.7892 46.4272 58.0692 46.0794 58.59 45.497C59.1108 44.8904 58.7136 44.0896 58.2016 43.3698C57.6896 42.6742 57.8132 41.4933 57.2924 39.9888C56.7892 38.444 56.2772 38.8079 56.2772 38.8079C56.2772 38.8079 55.8976 37.4006 53.7173 37.7322C51.5369 38.0962 50.7866 39.0344 50.919 41.1455C51.0338 43.2485 50.1422 43.2485 50.2746 44.308C50.3717 45.3757 51.431 46.4272 51.9253 46.4272C52.455 46.4272 52.5609 47.3573 51.6693 47.9559C50.7866 48.5463 46.0022 50.0346 46.0022 50.0346C46.0022 50.0346 45.3931 54.7582 45.6579 58.6406C45.9051 62.5149 46.7966 63.8899 47.8206 64.4885C48.8358 65.1032 49.3566 65.451 49.3566 65.451C49.3566 65.451 48.465 68.2496 48.2178 70.6922C47.9707 73.1673 47.9707 73.9842 47.9707 73.9842L45.6579 73.0621C45.6579 73.0621 45.0135 70.943 45.0135 69.8996C45.0135 68.8077 44.8811 66.7209 44.7664 65.9039C44.6516 65.0951 44.122 60.0399 44.6516 58.034C45.1636 56.0523 44.3868 53.9493 44.5104 53.2537C44.6516 52.5258 44.7487 51.2317 43.7247 50.0588C42.7008 48.9022 42.33 48.5382 41.1824 48.0448C40.0172 47.6162 39.0021 47.7132 38.7549 46.6698C38.4901 45.6103 38.6225 44.5668 38.6225 44.5668C38.6225 44.5668 40.0172 44.7852 40.4145 42.7631C40.794 40.7977 41.0589 39.9888 39.6377 39.3822C39.6377 39.3822 40.185 38.0395 39.0374 36.6322C37.8898 35.2086 36.4333 35.5079 36.4333 35.5079L35.5506 35.2733C35.5506 35.2733 33.3879 35.5079 32.6023 36.8182C31.8343 38.0962 32.2492 38.63 32.2492 39.4712C32.2492 40.28 31.0751 41.2749 32.0815 41.9705C32.5581 42.2859 31.8343 43.847 32.9995 44.1948C34.1294 44.5588 34.1294 44.5588 34.1294 44.5588C34.1294 44.5588 34.659 46.2978 33.8734 46.0794C33.1054 45.8286 31.4371 44.6639 29.2832 44.8904C27.1028 45.1573 25.3109 45.1573 24.0397 45.7073C22.7421 46.2978 23.5101 46.5323 21.5946 46.5323C19.679 46.5323 17.3663 46.5323 17.3663 46.5323C17.3663 46.5323 16.4835 45.7073 16.104 45.7073C15.6979 45.7073 10.8429 45.4889 10.8429 45.4889L9.68647 45.9742L6.35856 45.8286L4.69019 45.3757C4.69019 45.3757 4.03697 43.9521 3.66622 43.9521C3.66622 43.9521 4.79612 32.8306 8.64484 28.7056C12.4847 24.6048 14.5415 24.9364 18.6286 24.1437C22.7333 23.3106 26.0789 22.1621 27.8532 20.3827C29.6628 18.6194 30.4307 16.6378 30.4307 16.6378C30.4307 16.6378 30.8368 15.1495 30.0865 16.2576C27.862 19.4606 26.8821 20.2775 25.4698 20.9084C19.9703 23.3592 17.6134 22.5018 13.0144 23.9092C8.39768 25.3004 6.87054 26.8291 4.69019 31.1725C2.50983 35.5079 1.49469 44.1948 1.49469 44.1948C1.49469 44.1948 0.329479 44.7852 0.329479 45.7073C0.329479 46.6536 -0.30609 48.2956 0.188241 48.6596C0.709055 49.0235 1.11511 48.7566 1.11511 48.7566C1.11511 48.7566 1.35345 59.3281 4.29296 64.4723C6.56159 68.4356 9.57171 69.6408 10.8517 69.9724C11.4784 73.5232 12.4759 77.2923 11.2401 80.099C9.43048 84.0785 8.15051 88.4219 8.15051 88.4219C8.15051 88.4219 13.7912 91.2205 15.8303 91.9485C17.8871 92.6441 18.5226 93.3396 18.5226 93.3396L18.2755 96.1868C18.2755 96.1868 20.5618 98.1765 23.5278 98.4919C26.4584 98.8883 28.5152 99.9317 29.6716 100.627C30.8368 101.355 30.572 103.822 30.572 103.822L4.04579 101.832L6.37621 111.077L14.6916 112.25L16.8719 117.208C16.8719 117.208 24.4105 121.05 34.9239 123.404C45.4019 125.758 63.9835 125.758 63.9835 125.758C63.9835 125.758 60.8851 131.258 64.6102 134.671C68.3177 138.084 73.5788 137.276 73.5788 137.276V144.636H84.9838V138.424C84.9838 138.424 90.6686 138.772 91.9574 138.537C93.2462 138.303 94.2436 137.356 94.2436 137.356V144.636L109.427 144.935L108.606 135.852L118.51 135.739V145H136.315C136.315 145 136.686 137.955 135.406 133.264C134.126 128.573 131.31 124.334 130.912 124.245C130.533 124.116 159.751 122.353 169.726 113.569C179.719 104.728 175.482 96.0573 172.56 88.883ZM10.4456 65.6694C10.4103 66.5267 10.4898 67.4326 10.578 68.3871C9.58054 67.9098 7.48846 66.551 5.467 62.5068C2.63342 56.8692 3.41905 48.9022 3.41905 48.9022C3.41905 48.9022 3.66622 48.7566 4.57543 48.7566C5.47582 48.7566 7.64735 49.5978 7.64735 49.5978L17.6223 52.9949C17.6134 52.9949 10.7104 61.2208 10.4456 65.6694ZM50.9808 99.8023C50.6454 100.813 50.5659 101.663 50.7336 102.075C50.919 102.471 50.9808 104.267 50.9808 104.267L45.2783 103.733C45.2783 103.733 46.5671 103.256 46.2052 102.552C45.8786 101.857 44.7575 101.606 44.7575 101.379C44.7575 101.145 44.5192 99.8912 45.1018 98.4272C45.6844 96.9066 47.3175 94.1161 47.3175 94.1161L50.8131 94.4963C50.8219 94.4963 51.3339 98.7912 50.9808 99.8023ZM63.701 105.108C63.701 105.108 64.725 104.332 64.4866 103.863C64.213 103.402 62.3593 103.547 60.8145 103.264C59.2697 102.949 58.3428 102.083 58.0603 100.991C57.8132 99.8993 58.6871 94.658 58.6871 94.658L60.6379 94.7389C60.6379 94.7389 62.3504 77.2357 62.3504 73.143C62.3504 69.0988 62.5093 67.0444 62.0856 65.7179C61.6619 64.3833 61.3265 63.4532 61.3265 63.4532L61.503 61.6656C61.503 61.6656 62.6064 62.4259 63.8158 62.5149C64.3542 62.5311 64.7956 62.4664 65.1134 62.3774V79.0556C65.0869 79.5005 65.0339 79.8968 64.9898 80.1799C64.4866 83.3748 65.3429 92.1507 64.9104 94.2374C64.4955 96.3728 64.6544 100.417 64.6544 100.417L65.131 100.878V105.108H63.701ZM88.1881 105.407C85.8224 105.424 84.4541 105.424 84.4541 105.424C84.4541 105.424 84.8513 104.016 83.9421 103.903C83.0329 103.79 80.3582 104.016 79.7138 102.722C79.0783 101.444 79.8551 99.4383 79.8551 99.4383L81.5146 99.2361L83.3154 88.5433C83.3154 88.5433 87.7909 87.9771 87.9144 86.9175C88.0557 85.8579 88.5588 81.5306 88.5588 81.5306L88.1881 105.407Z" fill="#E8CFBB"/>
</svg>
