<svg width="227" height="151" viewBox="0 0 227 151" fill="none" xmlns="http://www.w3.org/2000/svg">
<path d="M6.37851 148.894L39.8534 131.164C47.8761 126.915 57.271 126.072 65.9219 128.826L76.2508 132.114C89.8553 136.444 104.229 127.96 107.106 113.976V113.976C109.226 103.669 117.855 95.9168 128.335 94.963V94.963C138.332 94.053 146.692 86.9855 149.253 77.2788L149.778 75.2883C152.655 64.3865 162.044 56.449 173.272 55.427L180.227 54.7939C188.424 54.0478 196.134 50.5738 202.123 44.9279L204.715 42.4844C215.135 32.6615 220.52 18.631 219.347 4.35889L219.075 1.04333" stroke="#685044" stroke-width="3"/>
</svg>
