<svg width="370" height="96" viewBox="0 0 370 96" fill="none" xmlns="http://www.w3.org/2000/svg">
<path d="M4.00003 4.49939L31.7665 4.49939C53.0152 4.49939 72.0916 17.5244 79.8279 37.3147L82.0643 43.0358C86.1478 53.482 94.6056 61.613 105.205 65.2818V65.2818C124.839 72.0783 146.311 61.9786 153.596 42.5203L154.98 38.8237C165.893 9.67252 203.475 1.86592 225.095 24.2588L226.149 25.3498C231.613 31.0092 235.432 38.0502 237.196 45.7166L237.862 48.611C243.503 73.127 265.326 90.4995 290.483 90.4995L293.002 90.4995C302.198 90.4995 311.258 88.2809 319.414 84.0318L366.5 59.4995" stroke="#685044" stroke-width="3"/>
</svg>
