<svg width="176" height="117" viewBox="0 0 176 117" fill="none" xmlns="http://www.w3.org/2000/svg">
<path d="M175.941 3.45922C175.941 2.86111 175.712 1.96395 175.254 1.6649C173.882 0.468692 171.595 1.36585 170.223 1.6649C166.793 2.26301 163.591 2.86111 159.932 2.86111C154.9 2.86111 149.64 2.56206 144.609 1.6649C140.035 0.767745 136.147 -1.02657 131.344 0.767747C124.483 3.16017 120.138 10.3374 120.367 19.608C120.596 24.991 119.91 29.1777 118.537 33.9625C117.165 38.4483 115.564 39.0464 112.362 39.0464C90.1788 39.0464 68.2238 38.7474 46.0401 39.0464C42.1522 39.0464 38.0356 39.0464 33.9191 39.0464C28.2016 39.0464 22.4842 40.5417 16.7667 39.0464C12.6501 37.8502 8.53357 35.1588 5.5605 31.2711C4.8744 30.3739 3.50221 27.6824 2.81612 27.6824C1.90133 27.9815 1.90133 31.5701 1.90133 32.4673C1.90133 36.355 3.04482 40.2426 3.04482 44.1303C3.04482 48.018 1.67263 51.3076 0.75784 54.8962C-0.156952 59.0829 -0.156954 63.2697 0.300442 67.4564C1.21523 74.3346 2.13003 81.5119 2.58742 88.6891C3.04482 94.9692 3.04482 100.95 3.50222 107.23C3.95961 112.314 4.18831 114.707 9.21966 115.604C15.1658 116.8 15.1658 114.109 16.538 109.025C18.3676 102.745 19.9685 96.1654 21.7981 89.8853C23.3989 85.1005 24.7711 74.6337 34.8338 79.7175C40.3226 82.409 46.0401 83.9043 51.7575 85.9976C57.9323 88.091 64.3359 90.1844 70.5107 91.6796C83.0891 94.9692 95.8962 96.7635 108.932 97.6607C110.304 97.6607 111.219 97.6607 112.134 99.1559C115.564 104.838 111.448 115.006 120.138 116.8C127.914 118.295 127.914 111.118 128.829 104.838C129.286 101.249 129.744 97.9597 130.43 94.6702C130.658 93.1749 131.573 91.6796 132.488 90.7825C143.237 82.409 149.412 65.9611 147.582 49.5133C147.353 46.8218 146.667 44.1303 146.896 41.1398C147.353 35.1587 153.071 32.7663 156.501 30.3739C160.846 27.0843 165.649 24.0938 169.308 19.608C171.824 16.6175 173.882 12.7298 175.026 8.54311C175.712 7.04785 176.169 4.95448 175.941 3.45922ZM139.349 43.5322C138.891 49.8123 136.833 52.8028 132.488 53.9991C124.712 56.0924 119.681 49.2142 121.968 39.3455C123.569 32.7663 125.398 26.4862 127.685 20.5052C129.972 14.5242 132.031 14.5241 134.775 20.2061C138.205 27.3834 140.035 35.1588 139.349 43.5322ZM146.667 16.0194C145.295 16.0194 144.152 14.5242 144.152 12.7298C144.152 10.9355 145.295 9.44026 146.667 9.44026C148.039 9.44026 149.183 10.9355 149.183 12.7298C149.183 14.5242 148.039 16.0194 146.667 16.0194Z" fill="#E8CFBB"/>
</svg>
