<svg width="176" height="131" viewBox="0 0 176 131" fill="none" xmlns="http://www.w3.org/2000/svg">
<path d="M105.592 45.524C115.597 43.7333 121.819 36.0425 119.491 28.3479C118.402 24.7537 115.638 21.7947 111.982 19.8438C103.726 30.2753 99.3908 39.037 97.1266 45.5196C99.8258 46.008 102.709 46.0404 105.592 45.524Z" fill="#E8CFBB"/>
<path d="M83.2545 34.8361C83.3727 35.2253 83.5141 35.6043 83.6704 35.9782C85.9842 30.8515 89.259 24.9756 93.8791 18.502C85.8395 21.2148 81.1921 28.0216 83.2545 34.8361Z" fill="#E8CFBB"/>
<path d="M79.7714 57.3678C79.7714 58.0387 79.8045 58.4425 79.8169 58.5614C80.0708 61.2367 82.9742 63.278 86.4093 63.278C86.5714 63.278 86.7343 63.2735 86.8989 63.2646C90.5267 63.0605 93.2557 60.6421 93.0167 57.8562C93.015 57.8428 93.0026 57.6787 93.0043 57.3684C93.0316 54.129 94.081 35.5704 119.586 8.84407C121.749 6.58084 121.117 3.39553 118.172 1.73324C115.229 0.0690391 111.088 0.555517 108.924 2.81938C81.7164 31.2576 79.7433 52.2544 79.7714 57.3678Z" fill="#E8CFBB"/>
<path d="M17.2473 128.961C32.0622 118.719 46.8447 113.434 58.6279 110.656C70.3971 107.886 79.1504 107.667 81.4881 107.669C81.5742 107.669 81.6519 107.669 81.7205 107.67C83.3041 107.826 87.2396 108.148 92.8289 108.149C101.783 108.144 115.01 107.329 129.557 103.523C144.082 99.7275 159.971 92.8367 173.463 80.8929C177.208 77.5804 176.754 72.5598 172.447 69.6785C168.139 66.7984 161.61 67.1481 157.865 70.4606C147.046 80.0121 134.641 85.3818 122.889 88.4743C116.66 90.1105 110.633 91.0707 105.252 91.6151C103.849 89.0797 101.597 86.3128 98.9575 83.413C90.5772 74.2075 102.044 68.7869 101.026 58.8233C101.068 55.2667 98.8872 52.3071 95.7117 50.2315C94.8095 53.8746 94.6673 56.3299 94.6582 57.376C94.6565 57.5947 94.6631 57.727 94.6664 57.7658C94.9633 61.2462 91.5331 64.2789 87.0196 64.5339C86.8162 64.5447 86.6136 64.5498 86.4085 64.5498C82.1001 64.5498 78.4805 61.9597 78.1663 58.6529C78.1555 58.5448 78.1175 58.1124 78.1175 57.3677C78.1051 55.2425 78.4689 48.2614 82.8419 37.8775C82.344 37.0025 81.9347 36.0855 81.6444 35.1246C79.2438 27.1896 85.2309 19.2375 95.1337 16.7777C95.3363 16.503 95.5389 16.2289 95.7464 15.9523C97.2143 13.188 98.8756 10.3098 100.77 7.31527C102.369 4.78941 101.002 1.744 97.7179 0.515403C94.4324 -0.715734 90.4738 0.334166 88.8753 2.8613C74.4384 25.6456 72.022 42.9718 72.0287 51.8715C72.0287 52.6047 72.046 53.2788 72.0725 53.8962C65.8464 61.098 61.9266 73.9067 71.1116 92.3394C66.1168 92.8367 59.7964 93.7581 52.5821 95.4528C38.3817 98.7882 20.7197 105.168 3.42322 117.14C-0.819866 120.077 -1.16636 125.103 2.65167 128.367C4.69341 130.112 7.51166 131 10.3415 131C12.8033 131 15.2759 130.327 17.2507 128.961H17.2473Z" fill="#E8CFBB"/>
</svg>
