<svg width="330" height="200" viewBox="0 0 330 200" fill="none" xmlns="http://www.w3.org/2000/svg">
<path d="M24.4979 178.198C27.1579 179.094 28.4879 180.886 28.4879 183.574C28.4879 185.618 27.7179 187.2 26.1779 188.32C24.6379 189.44 22.3419 190 19.2899 190H7.23594V167.404H18.7859C21.6139 167.404 23.8259 167.922 25.4219 168.958C27.0179 169.966 27.8159 171.394 27.8159 173.242C27.8159 174.362 27.5219 175.356 26.9339 176.224C26.3739 177.064 25.5619 177.722 24.4979 178.198ZM13.2419 176.686H18.1979C20.4939 176.686 21.6419 175.874 21.6419 174.25C21.6419 172.654 20.4939 171.856 18.1979 171.856H13.2419V176.686ZM18.7439 185.548C21.1519 185.548 22.3559 184.722 22.3559 183.07C22.3559 182.202 22.0759 181.572 21.5159 181.18C20.9559 180.76 20.0739 180.55 18.8699 180.55H13.2419V185.548H18.7439ZM64.2414 172.78H56.5974V190H50.0874V172.78H42.4434V167.404H64.2414V172.78ZM88.7566 178.786C88.7566 178.87 88.7146 179.458 88.6306 180.55H71.5366C71.8446 181.95 72.5726 183.056 73.7206 183.868C74.8686 184.68 76.2966 185.086 78.0046 185.086C79.1806 185.086 80.2166 184.918 81.1126 184.582C82.0366 184.218 82.8906 183.658 83.6746 182.902L87.1606 186.682C85.0326 189.118 81.9246 190.336 77.8366 190.336C75.2886 190.336 73.0346 189.846 71.0746 188.866C69.1146 187.858 67.6026 186.472 66.5386 184.708C65.4746 182.944 64.9426 180.942 64.9426 178.702C64.9426 176.49 65.4606 174.502 66.4966 172.738C67.5606 170.946 69.0026 169.56 70.8226 168.58C72.6706 167.572 74.7286 167.068 76.9966 167.068C79.2086 167.068 81.2106 167.544 83.0026 168.496C84.7946 169.448 86.1946 170.82 87.2026 172.612C88.2386 174.376 88.7566 176.434 88.7566 178.786ZM77.0386 172.024C75.5546 172.024 74.3086 172.444 73.3006 173.284C72.2926 174.124 71.6766 175.272 71.4526 176.728H82.5826C82.3586 175.3 81.7426 174.166 80.7346 173.326C79.7266 172.458 78.4946 172.024 77.0386 172.024ZM114.107 167.404V190H107.555V181.6C105.651 182.552 103.551 183.028 101.255 183.028C98.2029 183.028 95.8929 182.342 94.3249 180.97C92.7849 179.57 92.0149 177.414 92.0149 174.502V167.404H98.5669V174.082C98.5669 175.454 98.9169 176.448 99.6169 177.064C100.345 177.68 101.381 177.988 102.725 177.988C104.433 177.988 106.043 177.624 107.555 176.896V167.404H114.107ZM142.364 178.786C142.364 178.87 142.322 179.458 142.238 180.55H125.144C125.452 181.95 126.18 183.056 127.328 183.868C128.476 184.68 129.904 185.086 131.612 185.086C132.788 185.086 133.824 184.918 134.72 184.582C135.644 184.218 136.498 183.658 137.282 182.902L140.768 186.682C138.64 189.118 135.532 190.336 131.444 190.336C128.896 190.336 126.642 189.846 124.682 188.866C122.722 187.858 121.21 186.472 120.146 184.708C119.082 182.944 118.55 180.942 118.55 178.702C118.55 176.49 119.068 174.502 120.104 172.738C121.168 170.946 122.61 169.56 124.43 168.58C126.278 167.572 128.336 167.068 130.604 167.068C132.816 167.068 134.818 167.544 136.61 168.496C138.402 169.448 139.802 170.82 140.81 172.612C141.846 174.376 142.364 176.434 142.364 178.786ZM130.646 172.024C129.162 172.024 127.916 172.444 126.908 173.284C125.9 174.124 125.284 175.272 125.06 176.728H136.19C135.966 175.3 135.35 174.166 134.342 173.326C133.334 172.458 132.102 172.024 130.646 172.024ZM147.386 167.404H153.896V176.224H163.724V167.404H170.276V190H163.724V181.558H153.896V190H147.386V167.404ZM176.548 167.404H183.058V180.844L194.062 167.404H200.068V190H193.558V176.56L182.596 190H176.548V167.404ZM206.367 167.404H212.877V180.844L223.881 167.404H229.887V190H223.377V176.56L212.415 190H206.367V167.404ZM273.406 184.624V194.872H267.316V190H251.44V194.872H245.35V184.624H246.274C247.674 184.596 248.64 183.77 249.172 182.146C249.704 180.522 250.04 178.212 250.18 175.216L250.474 167.404H270.172V184.624H273.406ZM256.102 175.678C256.018 177.974 255.836 179.85 255.556 181.306C255.304 182.762 254.814 183.868 254.086 184.624H263.62V172.78H256.228L256.102 175.678ZM277.529 167.404H284.039V176.224H293.867V167.404H300.419V190H293.867V181.558H284.039V190H277.529V167.404ZM326.767 167.404V190H320.929V183.532H316.099L311.815 190H304.843L310.009 182.608C308.441 181.992 307.237 181.11 306.397 179.962C305.585 178.786 305.179 177.372 305.179 175.72C305.179 173.06 306.131 171.016 308.035 169.588C309.967 168.132 312.613 167.404 315.973 167.404H326.767ZM316.099 172.738C314.699 172.738 313.635 172.99 312.907 173.494C312.207 173.998 311.857 174.81 311.857 175.93C311.857 177.05 312.193 177.876 312.865 178.408C313.565 178.912 314.615 179.164 316.015 179.164H320.929V172.738H316.099Z" fill="#3A405A"/>
<path d="M198.899 140V128.408L193.103 138.128H190.727L185.075 128.372V140H179.999V120.632H185.867L192.059 131.828L198.647 120.632H203.903L203.975 140H198.899ZM209.354 120.632H214.934V132.152L224.366 120.632H229.514V140H223.934V128.48L214.538 140H209.354V120.632ZM234.913 120.632H240.493V128.192H248.917V120.632H254.533V140H248.917V132.764H240.493V140H234.913V120.632ZM279.313 120.632L270.565 141.188C269.677 143.42 268.573 144.992 267.253 145.904C265.957 146.816 264.385 147.272 262.537 147.272C261.529 147.272 260.533 147.116 259.549 146.804C258.565 146.492 257.761 146.06 257.137 145.508L259.189 141.512C259.621 141.896 260.113 142.196 260.665 142.412C261.241 142.628 261.805 142.736 262.357 142.736C263.125 142.736 263.749 142.544 264.229 142.16C264.709 141.8 265.141 141.188 265.525 140.324L265.597 140.144L257.209 120.632H263.005L268.441 133.772L273.913 120.632H279.313ZM298.47 125.24H291.918V140H286.338V125.24H279.786V120.632H298.47V125.24ZM311.652 126.824C314.172 126.848 316.08 127.412 317.376 128.516C318.672 129.62 319.32 131.204 319.32 133.268C319.32 135.428 318.588 137.096 317.124 138.272C315.66 139.448 313.584 140.036 310.896 140.036L301.464 140V120.632H307.044V126.824H311.652ZM321.408 120.632H326.988V140H321.408V120.632ZM310.392 136.04C311.472 136.064 312.3 135.836 312.876 135.356C313.452 134.876 313.74 134.156 313.74 133.196C313.74 132.26 313.452 131.576 312.876 131.144C312.324 130.712 311.496 130.484 310.392 130.46L307.044 130.424V136.04H310.392Z" fill="#3A405A"/>
<g filter="url(#filter0_d)">
<path d="M43.5979 77.072C57.8059 77.072 68.2699 79.904 74.9899 85.568C81.8059 91.232 85.2139 98.816 85.2139 108.32C85.2139 114.464 83.6779 120.08 80.6059 125.168C77.5339 130.16 72.8299 134.192 66.4939 137.264C60.2539 140.24 52.5259 141.728 43.3099 141.728C36.2059 141.728 29.1979 140.816 22.2859 138.992C15.4699 137.072 9.66188 134.384 4.86188 130.928L14.0779 113.072C17.9179 115.952 22.3339 118.208 27.3259 119.84C32.3179 121.376 37.4539 122.144 42.7339 122.144C48.5899 122.144 53.1979 120.992 56.5579 118.688C59.9179 116.384 61.5979 113.168 61.5979 109.04C61.5979 104.72 59.8219 101.456 56.2699 99.248C52.8139 97.04 46.7659 95.936 38.1259 95.936H12.3499L17.5339 39.2H79.0219V57.92H36.9739L35.3899 77.072H43.5979ZM141.063 80.24C149.895 81.68 156.663 84.992 161.367 90.176C166.071 95.264 168.423 101.6 168.423 109.184C168.423 115.04 166.887 120.464 163.815 125.456C160.743 130.352 156.039 134.288 149.703 137.264C143.463 140.24 135.783 141.728 126.663 141.728C119.559 141.728 112.551 140.816 105.639 138.992C98.8234 137.072 93.0154 134.384 88.2154 130.928L97.2874 113.072C101.127 115.952 105.543 118.208 110.535 119.84C115.623 121.376 120.807 122.144 126.087 122.144C131.943 122.144 136.551 121.04 139.911 118.832C143.271 116.528 144.951 113.312 144.951 109.184C144.951 100.928 138.663 96.8 126.087 96.8H115.431V81.392L136.167 57.92H93.2554V39.2H163.815V54.32L141.063 80.24Z" fill="#3A405A"/>
</g>
<defs>
<filter id="filter0_d" x="0.861816" y="39.2" width="171.562" height="110.528" filterUnits="userSpaceOnUse" color-interpolation-filters="sRGB">
<feFlood flood-opacity="0" result="BackgroundImageFix"/>
<feColorMatrix in="SourceAlpha" type="matrix" values="0 0 0 0 0 0 0 0 0 0 0 0 0 0 0 0 0 0 127 0"/>
<feOffset dy="4"/>
<feGaussianBlur stdDeviation="2"/>
<feColorMatrix type="matrix" values="0 0 0 0 0 0 0 0 0 0 0 0 0 0 0 0 0 0 0.25 0"/>
<feBlend mode="normal" in2="BackgroundImageFix" result="effect1_dropShadow"/>
<feBlend mode="normal" in="SourceGraphic" in2="effect1_dropShadow" result="shape"/>
</filter>
</defs>
</svg>
