<svg width="181" height="112" viewBox="0 0 181 112" fill="none" xmlns="http://www.w3.org/2000/svg">
<path d="M179.768 20.7678C180.744 19.7915 180.744 18.2085 179.768 17.2322L163.858 1.32233C162.882 0.346021 161.299 0.346021 160.322 1.32233C159.346 2.29864 159.346 3.88155 160.322 4.85787L174.464 19L160.322 33.1421C159.346 34.1184 159.346 35.7014 160.322 36.6777C161.299 37.654 162.882 37.654 163.858 36.6777L179.768 20.7678ZM58.0727 107.452L57.5112 105.016L57.5112 105.016L58.0727 107.452ZM69.8393 104.74L70.4008 107.176L70.4008 107.176L69.8393 104.74ZM124.434 22.7521L125.557 24.9856L125.557 24.9856L124.434 22.7521ZM107.549 60.492V54.1975H102.549V60.492H107.549ZM140.247 21.5H178V16.5H140.247V21.5ZM0 111.5H44.4661V106.5H0L0 111.5ZM58.6341 109.888L70.4008 107.176L69.2778 102.304L57.5112 105.016L58.6341 109.888ZM44.4661 111.5C49.2345 111.5 53.9875 110.959 58.6341 109.888L57.5112 105.016C53.2329 106.002 48.8565 106.5 44.4661 106.5V111.5ZM125.557 24.9856C130.115 22.6937 135.145 21.5 140.247 21.5V16.5C134.365 16.5 128.565 17.8762 123.311 20.5186L125.557 24.9856ZM107.549 54.1975C107.549 41.8396 114.516 30.5375 125.557 24.9856L123.311 20.5186C110.582 26.9195 102.549 39.9499 102.549 54.1975H107.549ZM102.549 60.492C102.549 80.4769 88.7521 97.8156 69.2778 102.304L70.4008 107.176C92.1444 102.165 107.549 82.8057 107.549 60.492H102.549Z" fill="#E9AFA3"/>
</svg>
