<svg width="75" height="75" viewBox="0 0 75 75" fill="none" xmlns="http://www.w3.org/2000/svg">
<path d="M37.5661 14.021C45.3703 14.021 51.7195 20.5025 51.7195 28.3067C51.7195 36.1109 45.3703 42.4601 37.5661 42.4601C29.7619 42.4601 23.2804 36.1109 23.2804 28.3067C23.2804 20.5025 29.7619 14.021 37.5661 14.021ZM37.5661 18.5184C32.1428 18.5184 27.7778 22.8834 27.7778 28.3067C27.7778 33.5977 32.1428 37.9628 37.5661 37.9628C42.8571 37.9628 47.2222 33.5977 47.2222 28.3067C47.2222 22.8834 42.8571 18.5184 37.5661 18.5184Z" fill="black"/>
<path d="M37.5661 0C58.2011 0 75 16.7989 75 37.5661C75 58.2011 58.2011 75 37.5661 75C16.7989 75 0 58.2011 0 37.5661C0 16.7989 16.7989 0 37.5661 0ZM37.5661 43.6508C48.4127 43.6508 57.672 51.3228 59.9206 61.7725C66.5344 55.8201 70.6349 47.0899 70.6349 37.5661C70.6349 19.3122 55.8201 4.49735 37.5661 4.49735C19.3122 4.49735 4.49735 19.3122 4.49735 37.5661C4.49735 47.0899 8.59788 55.8201 15.0794 61.7725C17.328 51.3228 26.5873 43.6508 37.5661 43.6508ZM55.9524 64.9471V64.8148C55.0265 55.4233 46.9577 48.1481 37.5661 48.1481C28.0423 48.1481 20.1058 55.4233 19.1799 64.8148V64.9471C24.3386 68.5185 30.6878 70.6349 37.5661 70.6349C44.3122 70.6349 50.6614 68.5185 55.9524 64.9471Z" fill="black"/>
</svg>
