<svg width="110" height="100" viewBox="0 0 110 100" fill="none" xmlns="http://www.w3.org/2000/svg">
<path d="M59.9299 85.7106L103.576 32.7611H78.1877L59.9299 85.7106ZM50.0572 85.6951L31.7569 32.7611H6.42377L50.0572 85.6951ZM36.7137 32.7611L54.9972 85.6462L73.2326 32.7611H36.7137ZM23.2263 8.08646L9.78574 27.3009H29.8692L23.2263 8.08646ZM27.2751 5.46018L34.8259 27.3009H75.1153L82.6463 5.46018H27.2751ZM86.7216 8.01181L80.0704 27.3009H100.214L86.7216 8.01181ZM55.3105 99.1077L55.0028 100L54.6979 99.1177L0 32.7611L22.9167 0H87.0833L110 32.7611L55.3105 99.1077Z" fill="white"/>
</svg>
