<svg width="23" height="28" viewBox="0 0 23 23" fill="none" xmlns="http://www.w3.org/2000/svg">
<g clip-path="url(#clip0)">
<path d="M18.7414 0.637695H4.25866C3.29839 0.637695 2.37746 1.01916 1.69845 1.69817C1.01943 2.37718 0.63797 3.29812 0.63797 4.25839L0.63797 18.7411C0.63797 19.7014 1.01943 20.6223 1.69845 21.3014C2.37746 21.9804 3.29839 22.3618 4.25866 22.3618H18.7414C19.7017 22.3618 20.6226 21.9804 21.3016 21.3014C21.9806 20.6223 22.3621 19.7014 22.3621 18.7411V4.25839C22.3621 3.29812 21.9806 2.37718 21.3016 1.69817C20.6226 1.01916 19.7017 0.637695 18.7414 0.637695V0.637695ZM20.5518 18.7411C20.5518 19.2213 20.361 19.6817 20.0215 20.0213C19.682 20.3608 19.2215 20.5515 18.7414 20.5515H4.25866C3.77853 20.5515 3.31806 20.3608 2.97855 20.0213C2.63905 19.6817 2.44831 19.2213 2.44831 18.7411V4.25839C2.44831 3.77825 2.63905 3.31778 2.97855 2.97828C3.31806 2.63877 3.77853 2.44804 4.25866 2.44804H18.7414C19.2215 2.44804 19.682 2.63877 20.0215 2.97828C20.361 3.31778 20.5518 3.77825 20.5518 4.25839V18.7411Z" fill="white"/>
<path d="M11.5 6.06873C10.4259 6.06873 9.37584 6.38725 8.48272 6.98402C7.58959 7.58079 6.89348 8.429 6.48242 9.42139C6.07135 10.4138 5.9638 11.5058 6.17336 12.5593C6.38292 13.6128 6.90017 14.5805 7.65972 15.3401C8.41926 16.0996 9.38698 16.6169 10.4405 16.8264C11.494 17.036 12.586 16.9284 13.5784 16.5174C14.5708 16.1063 15.419 15.4102 16.0158 14.5171C16.6125 13.624 16.9311 12.5739 16.9311 11.4998C16.9311 10.0594 16.3589 8.67795 15.3404 7.65944C14.3218 6.64092 12.9404 6.06873 11.5 6.06873ZM11.5 15.1204C10.7839 15.1204 10.0839 14.9081 9.48849 14.5103C8.89307 14.1124 8.429 13.5469 8.15496 12.8853C7.88091 12.2237 7.80921 11.4957 7.94892 10.7934C8.08862 10.0911 8.43346 9.44591 8.93982 8.93955C9.44619 8.43318 10.0913 8.08835 10.7937 7.94864C11.496 7.80894 12.224 7.88064 12.8856 8.15468C13.5472 8.42872 14.1127 8.89279 14.5105 9.48821C14.9084 10.0836 15.1207 10.7837 15.1207 11.4998C15.1207 12.46 14.7393 13.381 14.0603 14.06C13.3812 14.739 12.4603 15.1204 11.5 15.1204Z" fill="white"/>
<path d="M17.3837 6.97394C18.1335 6.97394 18.7414 6.36605 18.7414 5.61618C18.7414 4.86631 18.1335 4.25842 17.3837 4.25842C16.6338 4.25842 16.0259 4.86631 16.0259 5.61618C16.0259 6.36605 16.6338 6.97394 17.3837 6.97394Z" fill="white"/>
</g>
<defs>
<clipPath id="clip0">
<rect width="21.7241" height="27.1552" fill="white" transform="translate(0.63797 0.637695)"/>
</clipPath>
</defs>
</svg>
