<svg width="32" height="575" viewBox="0 0 32 575" fill="none" xmlns="http://www.w3.org/2000/svg">
<line x1="16.6364" y1="0.0666504" x2="16.6364" y2="575" stroke="#3A405A" stroke-width="5"/>
<rect x="0.545471" y="266.733" width="31.3636" height="36.2667" rx="10" fill="#3A405A"/>
<path d="M4.00043 284.885C4.00377 285.031 4.05996 285.17 4.15813 285.276L7.61863 288.953C7.72511 289.066 7.87086 289.13 8.02393 289.133C8.177 289.136 8.32491 289.077 8.43523 288.968C8.54556 288.86 8.6093 288.711 8.61248 288.555C8.61566 288.399 8.55802 288.248 8.45221 288.135L5.37472 284.867L8.45221 281.598C8.55802 281.485 8.61566 281.334 8.61248 281.178C8.6093 281.022 8.54556 280.873 8.43523 280.765C8.32491 280.656 8.177 280.597 8.02393 280.6C7.87086 280.603 7.72511 280.667 7.61863 280.78L4.15813 284.457C4.10524 284.514 4.06404 284.581 4.03696 284.655C4.00988 284.728 3.99746 284.807 4.00043 284.885V284.885Z" fill="white"/>
<path d="M28.4758 284.848C28.4724 284.702 28.4162 284.563 28.3181 284.457L24.8576 280.779C24.7511 280.667 24.6054 280.603 24.4523 280.6C24.2992 280.597 24.1513 280.656 24.041 280.765C23.9307 280.873 23.8669 281.021 23.8637 281.178C23.8606 281.334 23.9182 281.485 24.024 281.598L27.1015 284.866L24.024 288.135C23.9182 288.248 23.8606 288.399 23.8637 288.555C23.8669 288.711 23.9307 288.86 24.041 288.968C24.1513 289.076 24.2992 289.136 24.4523 289.133C24.6054 289.13 24.7511 289.066 24.8576 288.953L28.3181 285.276C28.371 285.219 28.4122 285.151 28.4392 285.078C28.4663 285.005 28.4787 284.926 28.4758 284.848V284.848Z" fill="white"/>
</svg>
