<svg width="257" height="45" viewBox="0 0 257 45" fill="none" xmlns="http://www.w3.org/2000/svg">
<path d="M181.036 0L186.296 15.5471H203.317L189.547 25.1558L194.807 40.7029L181.036 31.0942L167.265 40.7029L172.525 25.1558L158.754 15.5471H175.776L181.036 0Z" fill="#F1C40F"/>
<path d="M23.4282 0L28.6881 15.5471H45.7097L31.939 25.1558L37.1989 40.7029L23.4282 31.0942L9.65744 40.7029L14.9174 25.1558L1.14666 15.5471H18.1682L23.4282 0Z" fill="#F1C40F"/>
<path d="M75.9641 0L81.224 15.5471H98.2456L84.4749 25.1558L89.7348 40.7029L75.9641 31.0942L62.1933 40.7029L67.4533 25.1558L53.6825 15.5471H70.7041L75.9641 0Z" fill="#F1C40F"/>
<path d="M128.5 0L133.76 15.5471H150.782L137.011 25.1558L142.271 40.7029L128.5 31.0942L114.729 40.7029L119.989 25.1558L106.218 15.5471H123.24L128.5 0Z" fill="#F1C40F"/>
<path d="M233.572 0L238.832 15.5471H255.853L242.083 25.1558L247.343 40.7029L233.572 31.0942L219.801 40.7029L225.061 25.1558L211.29 15.5471H228.312L233.572 0Z" fill="#F1C40F"/>
</svg>
