<svg width="22" height="23" viewBox="0 0 22 22" fill="none" xmlns="http://www.w3.org/2000/svg">
<path d="M21.1604 1.02458C20.8771 0.73512 20.5137 0.536896 20.117 0.455335C19.7203 0.373775 19.3082 0.412598 18.9337 0.566823L1.33712 7.61165C0.94601 7.77941 0.61633 8.06398 0.393226 8.42638C0.170122 8.78877 0.0645053 9.21128 0.0908399 9.63603C0.117174 10.0608 0.274173 10.467 0.540333 10.7991C0.806493 11.1311 1.1688 11.3728 1.57763 11.491L8.38194 13.2832C8.49918 13.3145 8.60609 13.3762 8.69191 13.462C8.77772 13.5478 8.8394 13.6548 8.87074 13.772L10.663 20.5918C10.7656 21.0161 11.0021 21.3961 11.3374 21.6756C11.6728 21.955 12.0892 22.1191 12.525 22.1436H12.6647C13.0767 22.1464 13.4798 22.0241 13.8206 21.7927C14.1615 21.5613 14.424 21.2318 14.5733 20.8479L21.6104 3.25131C21.7656 2.87752 21.8056 2.46592 21.7255 2.06922C21.6453 1.67251 21.4485 1.30877 21.1604 1.02458ZM20.338 2.747L13.3009 20.3358C13.2461 20.4687 13.1512 20.5812 13.0294 20.6575C12.9076 20.7339 12.765 20.7704 12.6215 20.7618C12.478 20.7533 12.3408 20.7002 12.2289 20.6099C12.117 20.5196 12.0361 20.3967 11.9975 20.2582L10.2052 13.4461C10.1671 13.3254 10.1177 13.2085 10.0578 13.097L14.0069 9.15562C14.1208 9.024 14.1808 8.85423 14.1749 8.68027C14.169 8.50632 14.0976 8.34103 13.975 8.21746C13.8524 8.0939 13.6877 8.02119 13.5138 8.01388C13.3399 8.00656 13.1696 8.06519 13.0371 8.17803L9.09574 12.1194C8.9842 12.0595 8.86731 12.0102 8.7466 11.972L1.92677 10.1875C1.78831 10.1489 1.66537 10.068 1.57509 9.95609C1.48481 9.84422 1.43169 9.70696 1.42315 9.56346C1.41461 9.41996 1.45106 9.27737 1.52744 9.15558C1.60381 9.03379 1.71629 8.93887 1.84918 8.88407L19.438 1.847C19.5643 1.78526 19.7067 1.76405 19.8456 1.78627C19.9844 1.80849 20.113 1.87305 20.2138 1.97113C20.3129 2.07132 20.3782 2.2 20.4004 2.33914C20.4227 2.47828 20.4009 2.6209 20.338 2.747Z" fill="white"/>
</svg>
